<svg width="59" height="60" viewBox="0 0 59 60" fill="none" xmlns="http://www.w3.org/2000/svg">
<path d="M25.303 5.93387L3.68401 48.3419C3.23645 49.273 3.00307 50.2924 3.00099 51.3255C2.99891 52.3586 3.2282 53.379 3.67201 54.3119C4.04652 55.175 4.65517 55.9161 5.42907 56.4513C6.20297 56.9864 7.11122 57.2942 8.05101 57.3399H51.287C52.2268 57.2942 53.135 56.9864 53.909 56.4513C54.6829 55.9161 55.2915 55.175 55.666 54.3119C56.1095 53.3788 56.3385 52.3584 56.336 51.3253C56.3336 50.2922 56.0999 49.2728 55.652 48.3419L34.033 5.93387C33.6434 5.09699 33.0298 4.38428 32.2601 3.87472C31.4904 3.36515 30.5946 3.07862 29.672 3.04688C28.7481 3.07717 27.8506 3.36301 27.0793 3.87266C26.3081 4.38231 25.6932 5.0958 25.303 5.93387Z" stroke="#E51025" stroke-width="4.5" stroke-linecap="round" stroke-linejoin="round"/>
<path d="M29.668 21.3501V33.3501" stroke="#E51025" stroke-width="4.5" stroke-linecap="round" stroke-linejoin="round"/>
</svg>
