<svg width="14" height="14" viewBox="0 0 14 14" fill="none" xmlns="http://www.w3.org/2000/svg">
<path d="M7 14C10.866 14 14 10.866 14 7C14 3.13401 10.866 0 7 0C3.13401 0 0 3.13401 0 7C0 10.866 3.13401 14 7 14Z" fill="url(#paint0_radial_1_50318)"/>
<path d="M7 13.5C10.5899 13.5 13.5 10.5899 13.5 7C13.5 3.41015 10.5899 0.5 7 0.5C3.41015 0.5 0.5 3.41015 0.5 7C0.5 10.5899 3.41015 13.5 7 13.5Z" stroke="#0B3E58"/>
<path d="M9.687 6.406H7.718V4.437C7.71774 4.32118 7.67161 4.21018 7.58971 4.12829C7.50782 4.04639 7.39682 4.00026 7.281 4H6.843C6.72718 4.00026 6.61618 4.04639 6.53429 4.12829C6.45239 4.21018 6.40626 4.32118 6.406 4.437V6.406H4.437C4.32118 6.40626 4.21018 6.45239 4.12829 6.53429C4.04639 6.61618 4.00026 6.72718 4 6.843V7.28C4.00026 7.39582 4.04639 7.50682 4.12829 7.58871C4.21018 7.67061 4.32118 7.71674 4.437 7.717H6.406V9.687C6.40626 9.80282 6.45239 9.91382 6.53429 9.99571C6.61618 10.0776 6.72718 10.1237 6.843 10.124H7.28C7.39582 10.1237 7.50682 10.0776 7.58871 9.99571C7.67061 9.91382 7.71674 9.80282 7.717 9.687V7.718H9.687C9.80282 7.71774 9.91382 7.67161 9.99571 7.58971C10.0776 7.50782 10.1237 7.39682 10.124 7.281V6.843C10.1237 6.72718 10.0776 6.61618 9.99571 6.53429C9.91382 6.45239 9.80282 6.40626 9.687 6.406Z" fill="white"/>
<defs>
<radialGradient id="paint0_radial_1_50318" cx="0" cy="0" r="1" gradientUnits="userSpaceOnUse" gradientTransform="translate(9.60806 4.0057) rotate(-0.707) scale(8.624)">
<stop stop-color="white"/>
<stop offset="1" stop-color="#0B3E58"/>
</radialGradient>
</defs>
</svg>
