<svg width="32" height="37" viewBox="0 0 32 37" fill="none" xmlns="http://www.w3.org/2000/svg">
<path d="M0 32.8896C0.000265075 33.7847 0.35593 34.643 0.988807 35.2758C1.62169 35.9087 2.47998 36.2644 3.375 36.2646H28.125C29.02 36.2644 29.8783 35.9087 30.5112 35.2758C31.1441 34.643 31.4997 33.7847 31.5 32.8896V13.7646H0V32.8896ZM22.5 19.1086C22.5005 18.885 22.5896 18.6706 22.7478 18.5124C22.906 18.3543 23.1203 18.2652 23.344 18.2646H26.157C26.3807 18.2652 26.595 18.3543 26.7532 18.5124C26.9114 18.6706 27.0005 18.885 27.001 19.1086V21.9216C27.0005 22.1453 26.9114 22.3597 26.7532 22.5179C26.595 22.676 26.3807 22.7651 26.157 22.7656H23.344C23.1203 22.7651 22.906 22.676 22.7478 22.5179C22.5896 22.3597 22.5005 22.1453 22.5 21.9216V19.1086ZM22.5 28.1086C22.5005 27.885 22.5896 27.6706 22.7478 27.5124C22.906 27.3543 23.1203 27.2652 23.344 27.2646H26.157C26.3807 27.2652 26.595 27.3543 26.7532 27.5124C26.9114 27.6706 27.0005 27.885 27.001 28.1086V30.9216C27.0005 31.1453 26.9114 31.3597 26.7532 31.5179C26.595 31.676 26.3807 31.7651 26.157 31.7656H23.344C23.1203 31.7651 22.906 31.676 22.7478 31.5179C22.5896 31.3597 22.5005 31.1453 22.5 30.9216V28.1086ZM13.5 19.1086C13.5005 18.885 13.5896 18.6706 13.7478 18.5124C13.906 18.3543 14.1203 18.2652 14.344 18.2646H17.157C17.3807 18.2652 17.595 18.3543 17.7532 18.5124C17.9114 18.6706 18.0005 18.885 18.001 19.1086V21.9216C18.0005 22.1453 17.9114 22.3597 17.7532 22.5179C17.595 22.676 17.3807 22.7651 17.157 22.7656H14.344C14.1203 22.7651 13.906 22.676 13.7478 22.5179C13.5896 22.3597 13.5005 22.1453 13.5 21.9216V19.1086ZM13.5 28.1086C13.5005 27.885 13.5896 27.6706 13.7478 27.5124C13.906 27.3543 14.1203 27.2652 14.344 27.2646H17.157C17.3807 27.2652 17.595 27.3543 17.7532 27.5124C17.9114 27.6706 18.0005 27.885 18.001 28.1086V30.9216C18.0005 31.1453 17.9114 31.3597 17.7532 31.5179C17.595 31.676 17.3807 31.7651 17.157 31.7656H14.344C14.1203 31.7651 13.906 31.676 13.7478 31.5179C13.5896 31.3597 13.5005 31.1453 13.5 30.9216V28.1086ZM4.5 19.1086C4.50053 18.885 4.58962 18.6706 4.74779 18.5124C4.90595 18.3543 5.12032 18.2652 5.344 18.2646H8.156C8.37968 18.2652 8.59405 18.3543 8.75221 18.5124C8.91038 18.6706 8.99947 18.885 9 19.1086V21.9216C8.99947 22.1453 8.91038 22.3597 8.75221 22.5179C8.59405 22.676 8.37968 22.7651 8.156 22.7656H5.344C5.12032 22.7651 4.90595 22.676 4.74779 22.5179C4.58962 22.3597 4.50053 22.1453 4.5 21.9216V19.1086ZM4.5 28.1086C4.50053 27.885 4.58962 27.6706 4.74779 27.5124C4.90595 27.3543 5.12032 27.2652 5.344 27.2646H8.156C8.37968 27.2652 8.59405 27.3543 8.75221 27.5124C8.91038 27.6706 8.99947 27.885 9 28.1086V30.9216C8.99947 31.1453 8.91038 31.3597 8.75221 31.5179C8.59405 31.676 8.37968 31.7651 8.156 31.7656H5.344C5.12032 31.7651 4.90595 31.676 4.74779 31.5179C4.58962 31.3597 4.50053 31.1453 4.5 30.9216V28.1086ZM28.125 4.76465H24.75V1.38965C24.7492 1.09152 24.6304 0.805835 24.4196 0.595028C24.2088 0.384221 23.9231 0.26544 23.625 0.264648L21.375 0.264648C21.0769 0.26544 20.7912 0.384221 20.5804 0.595028C20.3696 0.805835 20.2508 1.09152 20.25 1.38965V4.76465H11.25V1.38965C11.2492 1.09152 11.1304 0.805835 10.9196 0.595028C10.7088 0.384221 10.4231 0.26544 10.125 0.264648H7.875C7.57687 0.26544 7.29119 0.384221 7.08038 0.595028C6.86957 0.805835 6.75079 1.09152 6.75 1.38965V4.76465H3.375C2.47998 4.76491 1.62169 5.12058 0.988807 5.75346C0.35593 6.38633 0.000265075 7.24462 0 8.13965L0 11.5146H31.5V8.13965C31.4997 7.24462 31.1441 6.38633 30.5112 5.75346C29.8783 5.12058 29.02 4.76491 28.125 4.76465Z" fill="url(#paint0_radial_1_46505)"/>
<defs>
<radialGradient id="paint0_radial_1_46505" cx="0" cy="0" r="1" gradientUnits="userSpaceOnUse" gradientTransform="translate(23.562 8.07665) scale(15.75 18)">
<stop stop-color="#EEEEEE"/>
<stop offset="1" stop-color="#0B3E58"/>
</radialGradient>
</defs>
</svg>
