<svg width="160" height="161" viewBox="0 0 160 161" fill="none" xmlns="http://www.w3.org/2000/svg">
<g id="Group" filter="url(#filter0_d_496_1817)">
<path id="Icon awesome-check-circle" d="M147.64 74.5021C147.64 89.1022 143.311 103.374 135.199 115.514C127.088 127.653 115.559 137.115 102.07 142.702C88.5813 148.289 73.7388 149.751 59.4192 146.903C45.0997 144.054 31.9465 137.024 21.6227 126.7C11.299 116.376 4.26849 103.222 1.42028 88.9029C-1.42793 74.5833 0.034071 59.7407 5.62141 46.2521C11.2087 32.7635 20.6705 21.2346 32.8101 13.1234C44.9497 5.01215 59.2219 0.682908 73.822 0.683105C93.3998 0.683371 112.176 8.46082 126.019 22.3045C139.863 36.1483 147.64 54.9243 147.64 74.5021ZM65.283 113.589L120.052 58.8201C120.945 57.9269 121.447 56.7156 121.447 55.4526C121.447 54.1896 120.945 52.9783 120.052 52.0851L113.317 45.3501C112.875 44.9078 112.35 44.557 111.772 44.3176C111.194 44.0783 110.575 43.9551 109.949 43.9551C109.324 43.9551 108.705 44.0783 108.127 44.3176C107.549 44.557 107.024 44.9078 106.582 45.3501L61.916 90.0201L41.062 69.1621C40.1688 68.2691 38.9575 67.7675 37.6945 67.7675C36.4315 67.7675 35.2202 68.2691 34.327 69.1621L27.592 75.8971C26.699 76.7903 26.1974 78.0016 26.1974 79.2646C26.1974 80.5276 26.699 81.7389 27.592 82.6321L58.549 113.589C59.4422 114.482 60.6535 114.984 61.9165 114.984C63.1795 114.984 64.3898 114.482 65.283 113.589Z" fill="url(#paint0_radial_496_1817)"/>
</g>
<defs>
<filter id="filter0_d_496_1817" x="0.00195312" y="0.683105" width="159.638" height="159.638" filterUnits="userSpaceOnUse" color-interpolation-filters="sRGB">
<feFlood flood-opacity="0" result="BackgroundImageFix"/>
<feColorMatrix in="SourceAlpha" type="matrix" values="0 0 0 0 0 0 0 0 0 0 0 0 0 0 0 0 0 0 127 0" result="hardAlpha"/>
<feOffset dx="6" dy="6"/>
<feGaussianBlur stdDeviation="3"/>
<feColorMatrix type="matrix" values="0 0 0 0 0.0745098 0 0 0 0 0.458824 0 0 0 0 0.243137 0 0 0 0.529 0"/>
<feBlend mode="normal" in2="BackgroundImageFix" result="effect1_dropShadow_496_1817"/>
<feBlend mode="normal" in="SourceGraphic" in2="effect1_dropShadow_496_1817" result="shape"/>
</filter>
<radialGradient id="paint0_radial_496_1817" cx="0" cy="0" r="1" gradientUnits="userSpaceOnUse" gradientTransform="translate(96.1143 46.5985) scale(73.819)">
<stop stop-color="#EEEEEE"/>
<stop offset="1" stop-color="#13753E"/>
</radialGradient>
</defs>
</svg>
