<svg width="13" height="13" viewBox="0 0 13 13" fill="none" xmlns="http://www.w3.org/2000/svg">
<path d="M8.42492 7.7349L6.93692 6.2469L8.42492 4.7589C8.50953 4.6743 8.55705 4.55955 8.55705 4.4399C8.55705 4.32026 8.50953 4.20551 8.42492 4.1209C8.34032 4.0363 8.22557 3.98877 8.10592 3.98877C7.98627 3.98877 7.87152 4.0363 7.78692 4.1209L6.29892 5.6089L4.81092 4.1259C4.72632 4.0413 4.61157 3.99377 4.49192 3.99377C4.37227 3.99377 4.25753 4.0413 4.17292 4.1259C4.08832 4.21051 4.04079 4.32526 4.04079 4.4449C4.04079 4.56455 4.08832 4.6793 4.17292 4.7639L5.66092 6.2519L4.17492 7.7349C4.13113 7.7757 4.09621 7.82508 4.07233 7.87996C4.04846 7.93484 4.03613 7.99405 4.03613 8.0539C4.03613 8.11375 4.04846 8.17296 4.07233 8.22785C4.09621 8.28273 4.13113 8.3321 4.17492 8.3729C4.2166 8.41517 4.26626 8.44874 4.32103 8.47165C4.37579 8.49455 4.43456 8.50635 4.49392 8.50635C4.55328 8.50635 4.61205 8.49455 4.66681 8.47165C4.72158 8.44874 4.77124 8.41517 4.81292 8.3729L6.30092 6.8849L7.78892 8.3729C7.87377 8.45705 7.98842 8.50427 8.10792 8.50427C8.22742 8.50427 8.34208 8.45705 8.42692 8.3729C8.46906 8.33109 8.50247 8.28132 8.52521 8.22649C8.54794 8.17165 8.55956 8.11285 8.55937 8.05349C8.55918 7.99412 8.5472 7.93539 8.52412 7.8807C8.50104 7.82601 8.46732 7.77645 8.42492 7.7349Z" fill="white"/>
<path d="M6.29874 1.166C7.47396 1.16665 8.6126 1.57474 9.52067 2.32076C10.4287 3.06678 11.0501 4.10456 11.2788 5.25731C11.5075 6.41005 11.3295 7.60645 10.7751 8.64265C10.2206 9.67886 9.32404 10.4908 8.2381 10.9401C7.15216 11.3894 5.94403 11.4483 4.81953 11.1067C3.69504 10.7652 2.72376 10.0443 2.07116 9.06692C1.41856 8.08955 1.12502 6.91615 1.24055 5.74662C1.35607 4.57709 1.87352 3.4838 2.70474 2.653C3.1757 2.17979 3.73586 1.8047 4.35277 1.54946C4.96969 1.29421 5.63111 1.16388 6.29874 1.166ZM6.29874 0.375C5.13741 0.375198 4.00221 0.719753 3.0367 1.3651C2.07119 2.01044 1.31871 2.92759 0.874429 4.00058C0.430145 5.07356 0.314002 6.25419 0.540688 7.39318C0.767373 8.53218 1.32671 9.57837 2.14796 10.3995C2.96921 11.2206 4.01551 11.7798 5.15453 12.0062C6.29356 12.2327 7.47418 12.1164 8.54708 11.6719C9.61999 11.2275 10.537 10.4748 11.1822 9.5092C11.8274 8.54358 12.1717 7.40833 12.1717 6.247C12.1719 5.47576 12.02 4.71205 11.7249 3.9995C11.4298 3.28695 10.9972 2.63953 10.4518 2.09422C9.90641 1.54892 9.25891 1.11642 8.54632 0.821425C7.83372 0.526435 7.06998 0.374738 6.29874 0.375Z" fill="white"/>
</svg>
