<svg width="27" height="36" viewBox="0 0 27 36" fill="none" xmlns="http://www.w3.org/2000/svg">
<path d="M27 7.875V32.625C27 33.5201 26.6444 34.3786 26.0115 35.0115C25.3786 35.6444 24.5201 36 23.625 36H3.375C2.47989 36 1.62145 35.6444 0.988515 35.0115C0.355579 34.3786 0 33.5201 0 32.625L0 7.875C0 6.97989 0.355579 6.12145 0.988515 5.48851C1.62145 4.85558 2.47989 4.5 3.375 4.5H9C9 3.30653 9.47411 2.16193 10.318 1.31802C11.1619 0.474106 12.3065 0 13.5 0C14.6935 0 15.8381 0.474106 16.682 1.31802C17.5259 2.16193 18 3.30653 18 4.5H23.625C24.5201 4.5 25.3786 4.85558 26.0115 5.48851C26.6444 6.12145 27 6.97989 27 7.875ZM13.5 2.813C13.1661 2.813 12.8397 2.91202 12.5621 3.09755C12.2845 3.28307 12.0681 3.54676 11.9404 3.85526C11.8127 4.16376 11.7793 4.50321 11.8445 4.83068C11.9097 5.15815 12.0706 5.45892 12.3068 5.69495C12.5429 5.93098 12.8438 6.09167 13.1713 6.15669C13.4988 6.22171 13.8382 6.18814 14.1467 6.06022C14.4551 5.93231 14.7186 5.7158 14.904 5.43808C15.0894 5.16035 15.1882 4.8339 15.188 4.5C15.188 4.27838 15.1443 4.05892 15.0595 3.85418C14.9746 3.64944 14.8503 3.46342 14.6935 3.30676C14.5368 3.15009 14.3507 3.02585 14.1459 2.94113C13.9411 2.85641 13.7216 2.81287 13.5 2.813ZM20.25 10.829V9.422C20.25 9.31008 20.2055 9.20274 20.1264 9.1236C20.0473 9.04446 19.9399 9 19.828 9H7.172C7.06008 9 6.95274 9.04446 6.8736 9.1236C6.79446 9.20274 6.75 9.31008 6.75 9.422V10.828C6.75 10.9399 6.79446 11.0473 6.8736 11.1264C6.95274 11.2055 7.06008 11.25 7.172 11.25H19.828C19.8834 11.25 19.9383 11.2391 19.9895 11.2179C20.0407 11.1967 20.0872 11.1656 20.1264 11.1264C20.1656 11.0872 20.1967 11.0407 20.2179 10.9895C20.2391 10.9383 20.25 10.8834 20.25 10.828V10.829Z" fill="url(#paint0_radial_1_46500)"/>
<defs>
<radialGradient id="paint0_radial_1_46500" cx="0" cy="0" r="1" gradientUnits="userSpaceOnUse" gradientTransform="translate(22.0532 -6.3933) rotate(-47.391) scale(15.3092 21.3803)">
<stop stop-color="#EEEEEE"/>
<stop offset="1" stop-color="#0B3E58"/>
</radialGradient>
</defs>
</svg>
