<svg width="30" height="30" viewBox="0 0 30 30" fill="none" xmlns="http://www.w3.org/2000/svg">
<path d="M14.625 3.328C17.324 3.32924 19.9391 4.26621 22.0248 5.97929C24.1104 7.69236 25.5376 10.0756 26.0633 12.7229C26.5889 15.3702 26.1804 18.1179 24.9074 20.4978C23.6344 22.8778 21.5756 24.7427 19.0818 25.775C16.588 26.8072 13.8134 26.9429 11.2308 26.159C8.64816 25.375 6.41722 23.7199 4.91803 21.4756C3.41884 19.2312 2.74415 16.5365 3.00891 13.8505C3.27366 11.1646 4.46148 8.65344 6.37001 6.745C7.45257 5.65908 8.7393 4.7981 10.1561 4.21165C11.5728 3.62521 13.0917 3.32489 14.625 3.328ZM14.625 0.375C11.7325 0.375 8.90486 1.23274 6.49979 2.83976C4.09472 4.44677 2.2202 6.73089 1.11327 9.40325C0.00633669 12.0756 -0.283287 15.0162 0.281022 17.8532C0.845331 20.6902 2.23823 23.2961 4.28357 25.3414C6.32891 27.3868 8.93484 28.7797 11.7718 29.344C14.6088 29.9083 17.5494 29.6187 20.2218 28.5117C22.8941 27.4048 25.1782 25.5303 26.7853 23.1252C28.3923 20.7201 29.25 17.8926 29.25 15C29.2503 13.0793 28.8722 11.1774 28.1373 9.40294C27.4024 7.62844 26.3251 6.01609 24.967 4.65798C23.6089 3.29987 21.9966 2.22261 20.2221 1.48773C18.4476 0.752845 16.5457 0.374737 14.625 0.375Z" fill="#999999"/>
<path d="M21.9385 20.266L19.8925 22.312L14.6255 17.046L9.35948 22.312L7.31348 20.266L12.5795 15L7.31348 9.73399L9.35948 7.68799L14.6255 12.954L19.8915 7.68799L21.9375 9.73399L16.6715 15L21.9385 20.266Z" fill="#999999"/>
</svg>
