<svg width="18" height="16" viewBox="0 0 18 16" fill="none" xmlns="http://www.w3.org/2000/svg">
<g opacity="0.7">
<path opacity="0.7" d="M12.273 2.53276L15.023 5.28276C15.0783 5.33888 15.1092 5.41449 15.1092 5.49326C15.1092 5.57203 15.0783 5.64764 15.023 5.70376L8.365 12.3608L5.536 12.6748C5.44759 12.6846 5.35809 12.6744 5.27414 12.645C5.1902 12.6156 5.11395 12.5676 5.05104 12.5047C4.98814 12.4418 4.94019 12.3656 4.91076 12.2816C4.88132 12.1977 4.87115 12.1082 4.881 12.0198L5.194 9.19276L11.852 2.53276C11.9081 2.47749 11.9837 2.44651 12.0625 2.44651C12.1413 2.44651 12.2169 2.47749 12.273 2.53276ZM17.211 1.83276L15.723 0.34776C15.4996 0.125054 15.197 0 14.8815 0C14.566 0 14.2634 0.125054 14.04 0.34776L12.962 1.42676C12.9067 1.48288 12.8758 1.55849 12.8758 1.63726C12.8758 1.71603 12.9067 1.79164 12.962 1.84776L15.712 4.59776C15.7681 4.65303 15.8437 4.68401 15.9225 4.68401C16.0013 4.68401 16.0769 4.65303 16.133 4.59776L17.212 3.51876C17.4347 3.29533 17.5598 2.99273 17.5598 2.67726C17.5598 2.36179 17.4347 2.05919 17.212 1.83576L17.211 1.83276ZM11.706 10.5478V13.6478H1.951V3.89876H8.956C9.05278 3.89817 9.14558 3.86019 9.215 3.79276L10.435 2.57276C10.4863 2.52157 10.5212 2.45632 10.5353 2.38527C10.5495 2.31422 10.5423 2.24057 10.5145 2.17364C10.4868 2.10672 10.4398 2.04953 10.3795 2.00931C10.3193 1.9691 10.2484 1.94768 10.176 1.94776H1.463C1.07507 1.94802 0.703104 2.10225 0.428795 2.37655C0.154487 2.65086 0.000264889 3.02283 0 3.41076L0 14.1408C0.000264889 14.5287 0.154487 14.9007 0.428795 15.175C0.703104 15.4493 1.07507 15.6035 1.463 15.6038H12.193C12.5809 15.6035 12.9529 15.4493 13.2272 15.175C13.5015 14.9007 13.6557 14.5287 13.656 14.1408V9.33076C13.6561 9.25831 13.6347 9.18747 13.5944 9.12721C13.5542 9.06695 13.497 9.01998 13.4301 8.99224C13.3632 8.96451 13.2895 8.95726 13.2185 8.97142C13.1474 8.98557 13.0822 9.02049 13.031 9.07176L11.812 10.2928C11.745 10.3617 11.7071 10.4537 11.706 10.5498V10.5478Z" fill="#0B3E58"/>
</g>
</svg>
