<svg width="31" height="36" viewBox="0 0 31 36" fill="none" xmlns="http://www.w3.org/2000/svg">
<path d="M29.9368 14.5473C29.6478 14.2353 18.5048 1.97029 18.5048 1.97029C18.1506 1.56803 17.7148 1.24597 17.2263 1.0256C16.7378 0.805229 16.2079 0.691629 15.6719 0.692387C15.136 0.693144 14.6065 0.80824 14.1186 1.02999C13.6307 1.25174 13.1957 1.57504 12.8428 1.97829C12.8428 1.97829 1.74976 14.1733 1.40976 14.5553C0.932302 15.1269 0.664818 15.8446 0.651757 16.5893V33.1103C0.630351 33.7467 0.861168 34.3658 1.29398 34.8329C1.72678 35.3 2.32655 35.5772 2.96276 35.6043H28.3848C29.021 35.5772 29.6207 35.3 30.0535 34.8329C30.4863 34.3658 30.7172 33.7467 30.6958 33.1103V16.5103C30.6781 15.7877 30.4098 15.0938 29.9368 14.5473ZM28.5368 17.8473L22.6768 24.4523C22.649 24.4818 22.6335 24.5208 22.6335 24.5613C22.6335 24.6018 22.649 24.6408 22.6768 24.6703L28.1148 30.9203C28.2927 31.1167 28.3912 31.3723 28.3912 31.6373C28.3912 31.9023 28.2927 32.1579 28.1148 32.3543C28.031 32.4476 27.9286 32.5222 27.8141 32.5733C27.6996 32.6243 27.5756 32.6507 27.4503 32.6507C27.3249 32.6507 27.2009 32.6243 27.0864 32.5733C26.972 32.5222 26.8695 32.4476 26.7858 32.3543L15.8828 19.7923C15.8574 19.7611 15.8255 19.736 15.7893 19.7188C15.753 19.7016 15.7134 19.6926 15.6733 19.6926C15.6331 19.6926 15.5935 19.7016 15.5573 19.7188C15.521 19.736 15.4891 19.7611 15.4638 19.7923L4.56576 32.3423C4.48201 32.4356 4.37956 32.5102 4.26507 32.5613C4.15058 32.6123 4.02662 32.6387 3.90126 32.6387C3.77589 32.6387 3.65193 32.6123 3.53745 32.5613C3.42296 32.5102 3.32051 32.4356 3.23676 32.3423C3.05883 32.1459 2.9603 31.8903 2.9603 31.6253C2.9603 31.3603 3.05883 31.1047 3.23676 30.9083L8.67676 24.6623C8.70125 24.6312 8.71457 24.5928 8.71457 24.5533C8.71457 24.5137 8.70125 24.4753 8.67676 24.4443L2.79676 17.8363C2.09676 17.0653 2.62376 15.0463 3.95976 15.0463H27.3878C28.5768 15.0423 29.2368 17.0803 28.5358 17.8423L28.5368 17.8473Z" fill="url(#paint0_radial_1_46494)"/>
<defs>
<radialGradient id="paint0_radial_1_46494" cx="0" cy="0" r="1" gradientUnits="userSpaceOnUse" gradientTransform="translate(23.1253 8.26827) scale(15.0234 17.456)">
<stop stop-color="#EEEEEE"/>
<stop offset="1" stop-color="#0B3E58"/>
</radialGradient>
</defs>
</svg>
