<svg width="15" height="11" viewBox="0 0 15 11" fill="none" xmlns="http://www.w3.org/2000/svg">
<path d="M12.4 9.625C12.7454 9.60486 13.0689 9.44906 13.3001 9.19153C13.5312 8.93401 13.6512 8.5956 13.634 8.25L13.64 1.375C13.6558 1.02875 13.5345 0.690219 13.3024 0.432818C13.0703 0.175418 12.746 0.019903 12.4 0H2.48C2.13396 0.019903 1.80972 0.175418 1.57759 0.432818C1.34546 0.690219 1.22416 1.02875 1.24 1.375V8.25C1.22416 8.59625 1.34546 8.93478 1.57759 9.19218C1.80972 9.44958 2.13396 9.6051 2.48 9.625H0V11H14.882V9.625H12.4ZM2.48 1.375H12.4V8.25H2.48V1.375Z" fill="#13753E"/>
</svg>
