<svg width="31" height="21" viewBox="0 0 31 21" fill="none" xmlns="http://www.w3.org/2000/svg">
<path id="Icon metro-visa" d="M26.4289 11.537H24.5859C24.7106 11.2036 25.0049 10.4036 25.4689 9.13698L25.5089 9.01698C25.5449 8.92765 25.5896 8.81165 25.6429 8.66898C25.6963 8.52631 25.7363 8.41032 25.7629 8.32098L25.9239 9.05698L26.4289 11.537ZM7.10194 10.667L6.32893 6.71898C6.28871 6.49223 6.16189 6.29002 5.97527 6.15509C5.78864 6.02016 5.55686 5.9631 5.32894 5.99598H1.73994L1.71294 6.16998C2.9251 6.38781 4.05975 6.9172 5.00545 7.70616C5.95114 8.49512 6.67535 9.5165 7.10694 10.67L7.10194 10.667ZM9.50194 5.99598L7.33393 11.858L7.10594 10.667C6.85576 10.0144 6.46797 9.42331 5.96894 8.93398C5.47206 8.42317 4.87534 8.02014 4.21594 7.74998L6.02293 14.576H8.36493L11.8579 5.99698L9.50194 5.99598ZM11.3619 14.589H13.5839L14.9759 5.99598H12.7549L11.3619 14.589ZM21.6419 6.21098C21.0058 5.96645 20.3294 5.84398 19.6479 5.84998C18.6885 5.80832 17.7424 6.08617 16.9579 6.63998C16.6298 6.87092 16.3623 7.17774 16.1782 7.53433C15.9942 7.89092 15.8991 8.2867 15.9009 8.68798C15.8923 9.59798 16.5393 10.3743 17.8419 11.017C18.1666 11.1561 18.4697 11.341 18.7419 11.566C18.8185 11.6303 18.8807 11.71 18.9245 11.8C18.9682 11.8899 18.9926 11.988 18.9959 12.088C18.9965 12.2185 18.9589 12.3462 18.8879 12.4557C18.8168 12.5651 18.7153 12.6514 18.5959 12.704C18.3105 12.8509 17.9929 12.9245 17.6719 12.918C16.9517 12.928 16.2383 12.777 15.5839 12.476L15.2899 12.329L14.9819 14.256C15.7633 14.5823 16.6056 14.7374 17.4519 14.711C18.4447 14.7692 19.428 14.4908 20.2429 13.921C20.5791 13.6748 20.852 13.3524 21.0393 12.9802C21.2265 12.608 21.3227 12.1966 21.3199 11.78C21.3199 10.834 20.6953 10.0576 19.4459 9.45098C19.1138 9.29106 18.796 9.10304 18.4959 8.88898C18.4101 8.83356 18.3386 8.75849 18.2875 8.66998C18.2364 8.58147 18.207 8.48207 18.2019 8.37998C18.208 8.27326 18.2413 8.16987 18.2988 8.0797C18.3562 7.98954 18.4358 7.91561 18.5299 7.86498C18.8162 7.70048 19.1444 7.62364 19.4739 7.64398C20.0444 7.6242 20.612 7.73395 21.1339 7.96498L21.3339 8.07198L21.6419 6.21098ZM27.3299 5.99698H25.6169C25.3707 5.97453 25.1238 6.03297 24.9138 6.16344C24.7037 6.2939 24.542 6.48929 24.4529 6.71998L21.1609 14.59H23.4889L23.9569 13.305H26.7939C26.8386 13.501 26.9279 13.9293 27.0619 14.59H29.1229L27.3299 5.99698ZM30.8369 1.71098V18.845C30.8307 19.2974 30.6483 19.7295 30.3283 20.0494C30.0084 20.3693 29.5763 20.5518 29.1239 20.558H1.71294C1.4888 20.5593 1.26675 20.5149 1.0604 20.4273C0.854057 20.3398 0.667761 20.2111 0.512935 20.049C0.35086 19.8942 0.222113 19.7079 0.134587 19.5015C0.0470621 19.2952 0.00260296 19.0731 0.00393533 18.849V1.71098C0.00260296 1.48684 0.0470621 1.2648 0.134587 1.05845C0.222113 0.852103 0.35086 0.665807 0.512935 0.510982C0.667761 0.348906 0.854057 0.220159 1.0604 0.132634C1.26675 0.0451085 1.4888 0.000649831 1.71294 0.00198221H29.1229C29.5748 0.00790803 30.0066 0.18971 30.3266 0.508795C30.6466 0.827881 30.8297 1.25912 30.8369 1.71098Z" fill="#0A6294"/>
</svg>
