<svg width="12" height="20" viewBox="0 0 12 20" fill="none" xmlns="http://www.w3.org/2000/svg">
<path d="M10.2851 0.75H2.60008C2.14361 0.772054 1.71435 0.973624 1.40585 1.31078C1.09735 1.64795 0.934603 2.09337 0.953077 2.55V18.195C0.934603 18.6516 1.09735 19.0971 1.40585 19.4342C1.71435 19.7714 2.14361 19.9729 2.60008 19.995H10.2851C10.7415 19.9729 11.1708 19.7714 11.4793 19.4342C11.7878 19.0971 11.9506 18.6516 11.9321 18.195V2.55C11.9506 2.09337 11.7878 1.64795 11.4793 1.31078C11.1708 0.973624 10.7415 0.772054 10.2851 0.75ZM6.44308 18.797C6.14295 18.7696 5.8639 18.631 5.66071 18.4084C5.45752 18.1859 5.34487 17.8954 5.34487 17.594C5.34487 17.2926 5.45752 17.0021 5.66071 16.7796C5.8639 16.557 6.14295 16.4184 6.44308 16.391C6.7432 16.4184 7.02225 16.557 7.22544 16.7796C7.42863 17.0021 7.54128 17.2926 7.54128 17.594C7.54128 17.8954 7.42863 18.1859 7.22544 18.4084C7.02225 18.631 6.7432 18.7696 6.44308 18.797ZM10.2861 14.736C10.2907 14.8503 10.25 14.9618 10.1729 15.0463C10.0957 15.1307 9.98833 15.1813 9.87408 15.187H3.01208C2.89783 15.1813 2.79045 15.1307 2.7133 15.0463C2.63614 14.9618 2.59545 14.8503 2.60008 14.736V3.006C2.59711 2.94899 2.60543 2.89195 2.62454 2.83816C2.64365 2.78437 2.67319 2.73488 2.71147 2.69252C2.74974 2.65016 2.79599 2.61577 2.84757 2.59131C2.89916 2.56686 2.95506 2.55282 3.01208 2.55H9.87408C9.98833 2.55571 10.0957 2.60629 10.1729 2.69074C10.25 2.7752 10.2907 2.8867 10.2861 3.001V14.736Z" fill="#13753E"/>
</svg>
