<svg width="40" height="31" viewBox="0 0 40 31" fill="none" xmlns="http://www.w3.org/2000/svg">
<path d="M26.968 13.441C29.86 13.441 32.177 10.551 32.177 6.971C32.177 3.391 29.86 0.5 26.968 0.5C24.076 0.5 21.738 3.39 21.738 6.97C21.738 10.55 24.077 13.441 26.968 13.441ZM13.032 13.441C15.924 13.441 18.241 10.551 18.241 6.971C18.241 3.391 15.924 0.5 13.032 0.5C10.14 0.5 7.80601 3.39 7.80601 6.97C7.80601 10.55 10.138 13.441 13.032 13.441ZM13.032 17.755C8.97301 17.754 0.838013 20.278 0.838013 25.3V30.7H25.226V25.3C25.226 20.278 17.091 17.755 13.032 17.755ZM26.968 17.755C26.4032 17.762 25.8391 17.798 25.278 17.863C26.357 18.778 27.2232 19.9176 27.816 21.2022C28.4088 22.4867 28.7139 23.8853 28.71 25.3V30.7H39.163V25.3C39.163 20.278 31.027 17.755 26.968 17.755Z" fill="url(#paint0_radial_1_46519)"/>
<defs>
<radialGradient id="paint0_radial_1_46519" cx="0" cy="0" r="1" gradientUnits="userSpaceOnUse" gradientTransform="translate(17.5675 23.4846) rotate(48.6901) scale(25.9792 19.2812)">
<stop stop-color="white"/>
<stop offset="1" stop-color="#0B3E58"/>
</radialGradient>
</defs>
</svg>
