<svg width="33" height="25" viewBox="0 0 33 25" fill="none" xmlns="http://www.w3.org/2000/svg">
<path id="Icon simple-americanexpress" d="M21.36 14.7C21.3611 14.5589 21.3172 14.4212 21.2346 14.3068C21.1521 14.1925 21.0352 14.1074 20.901 14.064C20.5539 13.9458 20.1866 13.8989 19.821 13.926H17.763V16.809H18.663V15.759H19.623C19.844 15.7282 20.069 15.7733 20.261 15.887C20.421 16.02 20.4 16.275 20.4 16.449V16.8H21.28V16.233C21.2919 16.14 21.2854 16.0456 21.2606 15.9551C21.2359 15.8647 21.1936 15.78 21.136 15.706C21.0112 15.5915 20.86 15.5094 20.696 15.467L20.723 15.459C20.8973 15.4166 21.0534 15.3196 21.1685 15.1822C21.2837 15.0447 21.3518 14.874 21.363 14.695L21.36 14.7ZM20.2 15.116H20.163C20.0221 15.1662 19.8722 15.1863 19.723 15.175H18.643V14.531H19.743C19.8916 14.5203 20.0408 14.5376 20.183 14.582C20.2403 14.5976 20.291 14.6315 20.3271 14.6787C20.3632 14.7259 20.3829 14.7836 20.383 14.843C20.3845 14.9017 20.3682 14.9595 20.3362 15.0087C20.3043 15.058 20.2582 15.0964 20.204 15.119L20.2 15.116ZM27.072 16.191H25.342V16.8H27.081C27.981 16.8 28.481 16.516 28.481 15.9C28.4897 15.7882 28.4717 15.6759 28.4284 15.5724C28.3851 15.4689 28.3178 15.3773 28.232 15.305C27.9317 15.1496 27.5957 15.0764 27.258 15.093L26.758 15.078C26.6438 15.0848 26.5291 15.0743 26.418 15.047C26.3648 15.0401 26.3157 15.0148 26.2792 14.9756C26.2427 14.9363 26.2211 14.8855 26.218 14.832C26.2123 14.788 26.221 14.7434 26.2426 14.7047C26.2642 14.666 26.2976 14.6353 26.338 14.617C26.4529 14.5697 26.577 14.5489 26.701 14.556H28.34V13.94H26.54C25.601 13.94 25.262 14.387 25.262 14.799C25.262 15.719 26.297 15.673 27.139 15.688C27.2429 15.6773 27.3476 15.6985 27.439 15.749C27.4716 15.7676 27.4988 15.7943 27.5179 15.8266C27.537 15.8588 27.5474 15.8955 27.548 15.933C27.548 15.9704 27.5381 16.0071 27.5193 16.0394C27.5005 16.0717 27.4735 16.0985 27.441 16.117C27.3274 16.1757 27.1994 16.2007 27.072 16.189V16.191ZM0 0V10.32L1.08 8.4H3.414L3.714 8.874V8.4H6.439L7.039 9.443L7.622 8.41H16.294C16.6466 8.38671 16.998 8.47073 17.302 8.651V8.416H19.685V8.651C20.1627 8.47515 20.6704 8.39529 21.179 8.416H24.655L24.975 8.892V8.416H27.533L27.872 8.891V8.415H30.35V12.451H27.836L27.356 11.838V12.438H24.217L23.876 11.794H23.1L22.74 12.422H21.12C20.6285 12.4373 20.1388 12.354 19.68 12.177V12.422H15.825V11.522C15.825 11.399 15.785 11.399 15.685 11.384H15.545V12.443H8.092V11.952L7.812 12.443H6.255L5.986 11.952V12.427H2.986L2.645 11.789H1.867L1.526 12.427H0V24.533H31.725V17.267C31.3059 17.4043 30.8658 17.4666 30.425 17.451H28.125V17.19C27.7461 17.3753 27.3276 17.4649 26.906 17.451H19.62V16.531C19.62 16.408 19.596 16.408 19.46 16.408H19.36V17.453H16.96V16.363C16.5591 16.4838 16.1397 16.5309 15.722 16.502H15.437V17.437H12.528L11.808 16.806L11.048 17.419H6.325V13.4H11.14L11.831 14.015L12.57 13.402H15.787C16.2184 13.3717 16.6504 13.4508 17.043 13.632V13.39H19.943C20.3545 13.3843 20.7628 13.4626 21.143 13.62V13.375H25.498V13.62C25.8253 13.4403 26.1962 13.3555 26.569 13.375H29.1V13.62C29.4447 13.4396 29.8315 13.355 30.22 13.375H31.789V0H0ZM28.217 15.287C28.222 15.292 28.225 15.299 28.23 15.303C28.235 15.307 28.262 15.313 28.273 15.323L28.217 15.287ZM31.781 13.372H31.868V13.939H31.781V13.372ZM31.83 15.363V15.358C31.79 15.332 31.769 15.309 31.73 15.286C31.4222 15.106 31.0663 15.0256 30.711 15.056L30.231 15.044C30.1102 15.048 29.9893 15.0376 29.871 15.013C29.8178 15.0061 29.7687 14.9808 29.7322 14.9416C29.6957 14.9023 29.674 14.8515 29.671 14.798C29.6691 14.7554 29.6794 14.7131 29.7007 14.6761C29.7219 14.6391 29.7532 14.6089 29.791 14.589C29.9057 14.5453 30.0287 14.5279 30.151 14.538H31.782V13.938H30.071C29.151 13.938 28.791 14.385 28.791 14.797C28.791 15.717 29.831 15.671 30.672 15.686C30.7759 15.6745 30.8808 15.6958 30.972 15.747C31.0034 15.7662 31.0292 15.7933 31.0467 15.8256C31.0643 15.8579 31.073 15.8942 31.072 15.931C31.0699 15.9695 31.0577 16.0068 31.0366 16.039C31.0155 16.0713 30.9864 16.0975 30.952 16.115C30.8436 16.179 30.7167 16.2044 30.592 16.187H28.873V16.805H30.59C30.8045 16.8277 31.0214 16.8068 31.2276 16.7436C31.4338 16.6803 31.6251 16.5761 31.79 16.437H31.83C31.9558 16.288 32.0202 16.0967 32.01 15.902C32.0229 15.706 31.9582 15.5128 31.83 15.364V15.363ZM24.804 14.523V13.923H21.823V16.823H24.8V16.223H22.71V15.64H24.755V15.04H22.711V14.519M18.019 8.982H18.933V11.857H18.02L18.019 8.982ZM17.507 9.755L17.498 9.761C17.4999 9.62035 17.4571 9.48274 17.3757 9.36805C17.2942 9.25336 17.1784 9.16754 17.045 9.123C16.6982 9.00362 16.3307 8.95665 15.965 8.985H13.911V11.868H14.811V10.811H15.771C15.9951 10.7869 16.2213 10.8297 16.421 10.934C16.584 11.073 16.564 11.32 16.564 11.494V11.856H17.464V11.29C17.477 11.1968 17.4707 11.1019 17.4454 11.0112C17.4201 10.9205 17.3764 10.836 17.317 10.763C17.1911 10.6492 17.0405 10.5664 16.877 10.521C17.0495 10.476 17.2033 10.3775 17.3165 10.2397C17.4296 10.102 17.4963 9.93196 17.507 9.754V9.755ZM16.367 10.155H16.347C16.206 10.205 16.056 10.2244 15.907 10.212H14.8V9.58H15.9C16.0485 9.57132 16.1974 9.58858 16.34 9.631C16.3968 9.64589 16.4471 9.679 16.4832 9.72524C16.5193 9.77149 16.5393 9.82832 16.54 9.887C16.5424 9.94537 16.5264 10.003 16.4943 10.0518C16.4622 10.1006 16.4156 10.1381 16.361 10.159L16.367 10.155ZM21.234 9.576H22.077V8.968H21.218C20.7399 8.92747 20.2618 9.04594 19.858 9.305C19.6927 9.44188 19.5626 9.61635 19.4786 9.81382C19.3946 10.0113 19.359 10.226 19.375 10.44C19.3575 10.6488 19.3922 10.8586 19.476 11.0507C19.5598 11.2427 19.69 11.4108 19.855 11.54C20.245 11.7726 20.6957 11.883 21.149 11.857H22.189L22.529 11.216H24.383L24.732 11.857H26.546V9.7L28.246 11.857H29.513V8.981H28.6V10.988L27.026 8.988H25.666V11.657L24.154 8.938H22.815L21.557 11.207H21.157C20.9401 11.2233 20.7231 11.1757 20.533 11.07C20.445 10.9819 20.3773 10.8757 20.3344 10.7588C20.2916 10.6419 20.2747 10.5171 20.285 10.393C20.2782 10.2732 20.2979 10.1534 20.3427 10.0421C20.3875 9.93082 20.4562 9.83074 20.544 9.749C20.7453 9.61128 20.9898 9.55123 21.232 9.58L21.234 9.576ZM23.459 9.466L24.078 10.609H22.838L23.46 9.464L23.459 9.466ZM3.174 11.214L3.513 11.856H5.335V9.6L6.635 11.854H7.41L8.708 9.6L8.728 11.851H9.648V8.983H8.16L7.084 10.93L5.915 8.982H4.459V11.7L2.941 8.982H1.611L0.011 11.854H0.971L1.318 11.214H3.174ZM2.257 9.471L2.871 10.614H1.646L2.256 9.469L2.257 9.471ZM15.813 13.923H12.956L11.822 14.867L10.722 13.925H7.13V16.808H10.67L11.81 15.855L12.91 16.806H14.647V15.845H15.765C16.565 15.845 17.326 15.677 17.326 14.879H17.318C17.318 14.079 16.518 13.928 15.818 13.928L15.813 13.923ZM10.23 16.205H10.211H8.029V15.636H9.99V15.049H8.029V14.528H10.27L11.248 15.366L10.229 16.208L10.23 16.205ZM13.754 16.542L12.38 15.37L13.754 14.237V16.537V16.542ZM15.825 15.256H14.645V14.523H15.825C16.145 14.523 16.385 14.623 16.385 14.875C16.385 15.127 16.185 15.256 15.825 15.256ZM13.294 9.581V8.981H10.31V11.856H13.294V11.263H11.2V10.686H13.24V10.1H11.2V9.581" fill="#0E7EBE"/>
</svg>
