<svg width="30" height="19" viewBox="0 0 30 19" fill="none" xmlns="http://www.w3.org/2000/svg">
<path id="Icon simple-mastercard" d="M13.8444 16.412C13.9154 16.472 13.9904 16.532 14.0654 16.59C12.7017 17.4961 11.1179 18.0153 9.48245 18.0925C7.84706 18.1696 6.22135 17.8018 4.77846 17.0281C3.33557 16.2545 2.12951 15.104 1.28873 13.6992C0.447941 12.2943 0.00390625 10.6878 0.00390625 9.05054C0.00390625 7.41332 0.447941 5.80676 1.28873 4.40192C2.12951 2.99709 3.33557 1.84659 4.77846 1.07293C6.22135 0.299281 7.84706 -0.0685562 9.48245 0.00859246C11.1179 0.0857412 12.7017 0.604987 14.0654 1.51104C13.9944 1.56711 13.9275 1.62827 13.8654 1.69404C12.8091 2.60675 11.9615 3.73595 11.3801 5.00504C10.7986 6.27413 10.4969 7.65343 10.4954 9.04938C10.4939 10.4453 10.7926 11.8253 11.3713 13.0956C11.95 14.366 12.7951 15.497 13.8494 16.412H13.8444ZM20.2444 3.70443e-05C18.4616 -0.00362579 16.7178 0.522275 15.2344 1.51104C15.3054 1.56711 15.3722 1.62827 15.4344 1.69404C16.4906 2.60675 17.3382 3.73595 17.9197 5.00504C18.5011 6.27413 18.8028 7.65343 18.8043 9.04938C18.8059 10.4453 18.5071 11.8253 17.9284 13.0956C17.3498 14.366 16.5046 15.497 15.4504 16.412C15.3794 16.472 15.3044 16.532 15.2294 16.59C16.4057 17.3722 17.7488 17.8681 19.1512 18.0382C20.5535 18.2083 21.9762 18.0478 23.3055 17.5696C24.6347 17.0913 25.8335 16.3087 26.8061 15.2841C27.7787 14.2596 28.498 13.0217 28.9064 11.6694C29.3149 10.3171 29.4012 8.88798 29.1584 7.49637C28.9156 6.10475 28.3505 4.78927 27.5083 3.65516C26.6661 2.52106 25.5701 1.59981 24.3081 0.965122C23.0461 0.330435 21.653 -7.41063e-05 20.2404 3.70443e-05H20.2444ZM14.6464 1.94104C14.5294 2.03304 14.4154 2.12404 14.3044 2.22304C13.3269 3.07209 12.5431 4.1211 12.006 5.29914C11.4689 6.47719 11.1909 7.75682 11.1909 9.05154C11.1909 10.3463 11.4689 11.6259 12.006 12.8039C12.5431 13.982 13.3269 15.031 14.3044 15.88C14.4144 15.98 14.5304 16.073 14.6464 16.163C14.7634 16.073 14.8774 15.977 14.9884 15.88C15.9658 15.031 16.7496 13.982 17.2867 12.8039C17.8238 11.6259 18.1018 10.3463 18.1018 9.05154C18.1018 7.75682 17.8238 6.47719 17.2867 5.29914C16.7496 4.1211 15.9658 3.07209 14.9884 2.22304C14.8784 2.12404 14.7634 2.03204 14.6464 1.94104Z" fill="#CB0E20"/>
</svg>
