<svg width="36" height="37" viewBox="0 0 36 37" fill="none" xmlns="http://www.w3.org/2000/svg">
<path id="Icon simple-paypal" d="M10.122 36.4999H5.46597C5.24514 36.512 5.02463 36.4709 4.823 36.38C4.62137 36.2891 4.44451 36.1511 4.30731 35.9777C4.17011 35.8042 4.07657 35.6003 4.03457 35.3832C3.99258 35.1661 4.00335 34.942 4.06597 34.7299L4.28897 33.7189H7.39197C7.90335 33.6998 8.39515 33.5173 8.79522 33.1982C9.19529 32.8791 9.48259 32.4402 9.61497 31.9459L11.215 25.0579C11.3486 24.5651 11.6359 24.1277 12.0352 23.8094C12.4344 23.4911 12.9248 23.3084 13.435 23.2879H14.76C20.4433 23.2879 24.8633 22.1179 28.02 19.7779C29.5091 18.7558 30.7215 17.3804 31.5487 15.7749C32.3759 14.1693 32.7921 12.3837 32.76 10.5779C32.8139 9.13229 32.511 7.69565 31.878 6.39489C31.878 6.37089 31.854 6.34789 31.854 6.32589L32.054 6.43889C33.1427 7.09363 34.0307 8.03488 34.621 9.15989C35.2633 10.4594 35.5726 11.8982 35.521 13.3469C35.5545 15.1536 35.1383 16.9403 34.3098 18.5463C33.4814 20.1522 32.2667 21.527 30.775 22.5469C27.625 24.8649 23.192 26.0329 17.524 26.0329H16.174C15.6616 26.0527 15.169 26.2361 14.7684 26.5563C14.3678 26.8764 14.0803 27.3165 13.948 27.8119L12.348 34.7199C12.2161 35.2086 11.9315 35.6425 11.5358 35.9581C11.14 36.2738 10.6538 36.4549 10.148 36.4749L10.122 36.4999ZM6.10697 32.4579H1.44897C1.22827 32.4695 1.008 32.4281 0.806605 32.3371C0.60521 32.2461 0.42856 32.1081 0.291456 31.9348C0.154352 31.7614 0.0607857 31.5578 0.0185967 31.3408C-0.0235923 31.1239 -0.0131753 30.9 0.0489747 30.6879L6.60497 2.27289C6.73712 1.77881 7.02408 1.34007 7.42378 1.02099C7.82348 0.70191 8.3149 0.519284 8.82597 0.499888H18.526C20.3593 0.47976 22.1907 0.624678 23.998 0.932888C25.4213 1.17091 26.787 1.67468 28.024 2.41789C29.1061 3.07656 29.9865 4.0199 30.569 5.14489C31.1942 6.45417 31.4947 7.89484 31.445 9.34489C31.4812 11.1491 31.066 12.9338 30.2372 14.5369C29.4084 16.1399 28.1921 17.5104 26.699 18.5239C23.549 20.8649 19.115 22.0129 13.445 22.0129H12.119C11.6111 22.0315 11.1224 22.2115 10.7237 22.5267C10.3251 22.842 10.0372 23.276 9.90197 23.7659L8.30997 30.6459C8.17409 31.1374 7.88475 31.5726 7.48415 31.8881C7.08355 32.2037 6.59263 32.383 6.08297 32.3999L6.10697 32.4579ZM17.275 6.39989H15.754C15.2436 6.41834 14.7526 6.5999 14.3531 6.91793C13.9535 7.23595 13.6664 7.67369 13.534 8.16689L12.139 14.1999C12.0761 14.412 12.0651 14.6361 12.107 14.8533C12.1489 15.0705 12.2424 15.2744 12.3797 15.4479C12.517 15.6213 12.694 15.7592 12.8957 15.8499C13.0975 15.9406 13.3181 15.9814 13.539 15.9689H14.688C16.7506 16.088 18.7981 15.5521 20.538 14.4379C21.2202 13.9394 21.7681 13.2794 22.1325 12.517C22.4969 11.7547 22.6664 10.9139 22.626 10.0699C22.6626 9.53187 22.5572 8.99368 22.3203 8.50926C22.0833 8.02485 21.7232 7.61123 21.276 7.30989C20.0491 6.62366 18.6497 6.30759 17.247 6.39989H17.275Z" fill="#0B3E58"/>
</svg>
