<svg width="30" height="36" viewBox="0 0 30 36" fill="none" xmlns="http://www.w3.org/2000/svg">
<path d="M29.624 21.375C29.6244 24.1715 28.823 26.9095 27.3148 29.2644C25.8065 31.6194 23.6548 33.4925 21.1145 34.6619C18.5742 35.8313 15.7519 36.2478 12.9822 35.8621C10.2124 35.4765 7.61122 34.3048 5.487 32.486C3.36279 30.6672 1.80457 28.2774 0.997042 25.6001C0.189513 22.9227 0.166529 20.0699 0.930815 17.3799C1.6951 14.6898 3.21461 12.2753 5.30924 10.4225C7.40388 8.56967 9.98581 7.35623 12.749 6.926V4.5H10.78C10.5563 4.49947 10.342 4.41038 10.1838 4.25221C10.0256 4.09405 9.93655 3.87968 9.93602 3.656V0.844C9.93655 0.62032 10.0256 0.405952 10.1838 0.247785C10.342 0.089619 10.5563 0.000528173 10.78 0L19.218 0C19.4417 0.000528173 19.6561 0.089619 19.8142 0.247785C19.9724 0.405952 20.0615 0.62032 20.062 0.844V3.656C20.0615 3.87968 19.9724 4.09405 19.8142 4.25221C19.6561 4.41038 19.4417 4.49947 19.218 4.5H17.249V6.926C19.8246 7.32403 22.2457 8.40717 24.259 10.062L26.193 8.128C26.2716 8.04878 26.365 7.98591 26.468 7.943C26.571 7.90009 26.6815 7.878 26.793 7.878C26.9046 7.878 27.015 7.90009 27.118 7.943C27.221 7.98591 27.3145 8.04878 27.393 8.128L29.383 10.118C29.4622 10.1966 29.5251 10.29 29.568 10.393C29.6109 10.496 29.633 10.6064 29.633 10.718C29.633 10.8296 29.6109 10.94 29.568 11.043C29.5251 11.146 29.4622 11.2394 29.383 11.318L27.311 13.38L27.269 13.422C28.8128 15.7866 29.6314 18.5511 29.624 21.375ZM17.249 23.906V13.254C17.2485 13.0303 17.1594 12.816 17.0012 12.6578C16.8431 12.4996 16.6287 12.4105 16.405 12.41H13.593C13.3693 12.4105 13.155 12.4996 12.9968 12.6578C12.8386 12.816 12.7496 13.0303 12.749 13.254V23.906C12.7496 24.1297 12.8386 24.344 12.9968 24.5022C13.155 24.6604 13.3693 24.7495 13.593 24.75H16.406C16.6295 24.7492 16.8436 24.66 17.0016 24.5019C17.1595 24.3437 17.2485 24.1295 17.249 23.906Z" fill="url(#paint0_radial_1_46510)"/>
<defs>
<radialGradient id="paint0_radial_1_46510" cx="0" cy="0" r="1" gradientUnits="userSpaceOnUse" gradientTransform="translate(23.6934 9.25249) scale(14.6295 18.0009)">
<stop stop-color="#EEEEEE"/>
<stop offset="1" stop-color="#0B3E58"/>
</radialGradient>
</defs>
</svg>
