<svg width="18" height="21" viewBox="0 0 18 21" fill="none" xmlns="http://www.w3.org/2000/svg">
<path d="M7.55287 2.66301L1.20087 16.815C1.06956 17.1306 1.00195 17.4691 1.00195 17.811C1.00195 18.1529 1.06956 18.4914 1.20087 18.807C1.2946 19.0819 1.4661 19.3236 1.69456 19.5029C1.92301 19.6822 2.1986 19.7913 2.48787 19.817H15.1879C15.4771 19.7913 15.7527 19.6822 15.9812 19.5029C16.2096 19.3236 16.3811 19.0819 16.4749 18.807C16.6062 18.4914 16.6738 18.1529 16.6738 17.811C16.6738 17.4691 16.6062 17.1306 16.4749 16.815L10.1179 2.66301C10.0201 2.3957 9.84697 2.16242 9.61948 1.99136C9.39198 1.82029 9.11982 1.71875 8.83587 1.69901C8.55174 1.71857 8.27937 1.82002 8.05168 1.9911C7.82399 2.16217 7.65074 2.39555 7.55287 2.66301Z" stroke="#E51025" stroke-width="1.5" stroke-linecap="round" stroke-linejoin="round"/>
<path d="M8.83594 7.80801V11.808" stroke="#E51025" stroke-width="1.5" stroke-linecap="round" stroke-linejoin="round"/>
</svg>
