<svg width="9" height="12" viewBox="0 0 9 12" fill="none" xmlns="http://www.w3.org/2000/svg">
<path d="M4.493 11.451C4.79051 11.45 5.07554 11.3313 5.28592 11.1209C5.49629 10.9106 5.61495 10.6255 5.616 10.328H3.37C3.37 10.6259 3.48832 10.9115 3.69892 11.1221C3.90952 11.3327 4.19516 11.451 4.493 11.451ZM7.863 8.08101V5.27501C7.91982 4.48172 7.69855 3.6934 7.2372 3.04554C6.77586 2.39769 6.10326 1.93076 5.335 1.72501V1.34401C5.3389 1.23093 5.31999 1.11823 5.2794 1.01261C5.23882 0.906989 5.17739 0.810621 5.09877 0.729247C5.02015 0.647874 4.92595 0.58316 4.8218 0.538961C4.71764 0.494763 4.60565 0.471985 4.4925 0.471985C4.37935 0.471985 4.26736 0.494763 4.1632 0.538961C4.05904 0.58316 3.96485 0.647874 3.88623 0.729247C3.80761 0.810621 3.74618 0.906989 3.7056 1.01261C3.66501 1.11823 3.6461 1.23093 3.65 1.34401V1.72601C2.88075 1.93003 2.20701 2.39654 1.74537 3.04481C1.28372 3.69309 1.06322 4.48234 1.122 5.27601V8.08401L0 9.20702V9.76901H8.987V9.20702L7.863 8.08101Z" fill="url(#paint0_radial_352_5104)"/>
<defs>
<radialGradient id="paint0_radial_352_5104" cx="0" cy="0" r="1" gradientUnits="userSpaceOnUse" gradientTransform="translate(5.83256 3.68884) scale(4.4935 5.48951)">
<stop stop-color="#F9F2CD"/>
<stop offset="1" stop-color="#DCD028"/>
</radialGradient>
</defs>
</svg>
