<svg width="20" height="22" viewBox="0 0 20 22" fill="none" xmlns="http://www.w3.org/2000/svg">
<path d="M14.0001 1.059V4.67399H12.4461C12.3872 4.56675 12.3003 4.47752 12.1946 4.41587C12.0889 4.35422 11.9684 4.3225 11.8461 4.32401H7.25513C7.13279 4.3225 7.0123 4.35422 6.90662 4.41587C6.80093 4.47752 6.71399 4.56675 6.65509 4.67399H5.1001V1.059C5.11087 0.875232 5.05439 0.693808 4.94122 0.548622C4.82806 0.403435 4.66594 0.304408 4.48511 0.269996C4.37523 0.248238 4.262 0.249804 4.15277 0.274574C4.04354 0.299344 3.94075 0.346772 3.85101 0.413795C3.76127 0.480818 3.6866 0.565904 3.63184 0.663612C3.57708 0.76132 3.54341 0.869465 3.53308 0.980995C3.52473 1.02464 3.51871 1.06872 3.51508 1.11301V5.283C3.41393 5.35733 3.33984 5.46267 3.30408 5.58298C3.29208 5.63565 3.26378 5.78833 3.21912 6.04099V7.077L2.81909 7.10099C2.68395 7.10922 2.55497 7.1604 2.45099 7.24711C2.34701 7.33382 2.27346 7.45152 2.24109 7.58298C2.2201 7.66172 2.20802 7.74258 2.20508 7.82401L2.22308 14.15L0.795105 14.234C0.619844 14.2585 0.459515 14.3461 0.344116 14.4803C0.228718 14.6144 0.166138 14.786 0.168091 14.963L0.192078 15.644C0.188591 15.7258 0.205549 15.8072 0.241333 15.8809C0.277117 15.9546 0.330623 16.0182 0.397095 16.066L-0.00292969 18.181V21.76H19.0971V18.182L18.6971 16.067C18.7627 16.0187 18.8153 15.9548 18.8502 15.8812C18.8851 15.8076 18.9012 15.7264 18.8971 15.645L18.9211 14.964C18.923 14.787 18.8605 14.6154 18.7451 14.4812C18.6297 14.3471 18.4693 14.2595 18.2941 14.235L16.8661 14.151L16.8841 7.82499C16.8811 7.74357 16.869 7.66271 16.8481 7.58396C16.8155 7.45241 16.7418 7.33473 16.6376 7.24802C16.5335 7.16132 16.4044 7.11014 16.2691 7.10197L15.8691 7.07798V6.04197C15.8251 5.78864 15.7971 5.63596 15.7851 5.58396C15.7492 5.46371 15.6751 5.35841 15.5741 5.28397V1.11399C15.5707 1.06967 15.5647 1.02558 15.5561 0.981971C15.5458 0.870441 15.5122 0.762358 15.4574 0.664649C15.4026 0.566941 15.328 0.481794 15.2382 0.414771C15.1485 0.347748 15.0456 0.30032 14.9364 0.27555C14.8272 0.25078 14.714 0.249214 14.6041 0.270973C14.4233 0.305385 14.2611 0.404473 14.1479 0.549659C14.0348 0.694845 13.9783 0.876208 13.9891 1.05997M15.1041 1.012L15.1161 1.072V1.19901L15.1641 7.27201H15.0801V7.32597L15.0021 7.27201L14.9021 7.30802L14.8481 7.27201H14.5001L14.4161 1.19901L14.4101 1.07798C14.4145 0.998581 14.4472 0.923413 14.5022 0.866004C14.5572 0.808596 14.6309 0.77275 14.7101 0.764991C14.7955 0.749853 14.8834 0.766679 14.9572 0.812232C15.031 0.857786 15.0854 0.928891 15.1101 1.012M15.2101 5.67496C15.3865 5.91623 15.4905 6.20278 15.5101 6.50101C15.5141 6.53084 15.5162 6.56088 15.5161 6.59098V7.29099H15.3661C15.4013 6.74573 15.3483 6.19839 15.2091 5.67002M14.0091 5.23002L14.0571 5.869L13.8521 5.56901L12.2921 5.533C12.3471 5.67289 12.3716 5.82288 12.3641 5.973C12.3449 5.7782 12.2637 5.59469 12.1325 5.44944C12.0013 5.30419 11.8269 5.20484 11.6351 5.16599L9.68311 5.12998V5.124H9.40613V5.12998L7.4541 5.16599C7.26225 5.20484 7.08794 5.30419 6.95673 5.44944C6.82551 5.59469 6.74431 5.7782 6.7251 5.973C6.71781 5.8229 6.74237 5.67295 6.79712 5.533L5.23608 5.56901L5.03113 5.869L5.0791 5.23002L6.91107 5.21799C6.94555 5.13728 7.00071 5.06704 7.07092 5.01438C7.14114 4.96172 7.22396 4.9285 7.3111 4.91801H11.7821C11.8694 4.92791 11.9525 4.96091 12.0228 5.01365C12.0931 5.06638 12.1481 5.13693 12.1821 5.21799L14.0141 5.23002M14.7011 8.15202C14.6965 8.16175 14.6924 8.17174 14.6891 8.18198L14.6831 9.98899L14.3341 10.049L14.3401 8.10899C14.4121 7.97232 14.6028 7.92 14.9121 7.952C14.8597 7.95717 14.8105 7.97963 14.7723 8.01585C14.7341 8.05206 14.7091 8.09998 14.7011 8.15202ZM14.3761 10.881V10.568L14.6761 10.526L14.6701 10.881H14.3701M15.3221 11.303L15.4431 11.351L15.4311 13.894L15.9671 13.882L16.0091 11.339L15.5991 11.212C16.0211 11.22 16.2944 11.1093 16.4191 10.88L16.4011 14.14H14.7861L14.9671 13.929L14.9551 11.453C14.9493 11.3926 14.9227 11.3361 14.8798 11.2933C14.8369 11.2504 14.7805 11.2238 14.7201 11.218L15.5031 11.2L15.3221 11.3M18.0151 14.722L17.9001 15.107C17.9241 14.8056 17.8477 14.6167 17.6711 14.54L18.1961 14.64C18.2443 14.6559 18.2877 14.6835 18.3226 14.7203C18.3575 14.7571 18.3828 14.802 18.3961 14.851L18.4141 15.435C18.4164 15.489 18.4003 15.5422 18.3685 15.5859C18.3368 15.6297 18.2911 15.6614 18.2391 15.676L17.8651 15.73C18.1064 15.682 18.2371 15.5693 18.2571 15.392L18.2811 14.874C18.2571 14.802 18.1688 14.752 18.0161 14.724M17.0581 14.718C17.2268 14.722 17.3071 14.7983 17.2991 14.947V15.417C17.3031 15.4939 17.2773 15.5695 17.2271 15.628C17.168 15.6721 17.0959 15.6954 17.0221 15.694H16.2021C16.13 15.6944 16.0598 15.6712 16.0021 15.628C15.9511 15.5699 15.9253 15.4941 15.9301 15.417V14.947C15.9221 14.7983 16.0024 14.722 16.1711 14.718H17.0631M17.3101 14.477C17.4108 14.465 17.4774 14.5413 17.5101 14.706C17.4821 14.6453 17.3917 14.609 17.2391 14.597L14.5221 14.537C14.3221 14.561 14.2077 14.6977 14.1791 14.947C14.1191 14.6217 14.1631 14.433 14.3111 14.381L17.3051 14.481M18.0641 16.168L18.0221 16.246L17.7871 16.192C17.9298 16.1667 18.0608 16.0966 18.1611 15.992L18.4611 17.836L16.7201 17.878L17.4011 17.517C17.6248 17.3755 17.8055 17.1754 17.9234 16.9385C18.0413 16.7015 18.092 16.4368 18.0701 16.173M15.4971 14.727C15.6657 14.731 15.7461 14.8073 15.7381 14.956V15.426C15.7429 15.5031 15.717 15.579 15.6661 15.637C15.6084 15.6802 15.5382 15.7033 15.4661 15.703H14.6461C14.574 15.7033 14.5038 15.6802 14.4461 15.637C14.3951 15.579 14.3692 15.5031 14.3741 15.426V14.956C14.3661 14.8073 14.4464 14.731 14.6151 14.727H15.5071M14.0431 16.348V16.011L16.1221 15.981C16.1221 16.037 16.0861 16.073 16.0141 16.089H16.0001L14.0361 16.348M14.0541 17.932L14.0721 17.167L16.9941 17.149L16.4161 17.878L14.0541 17.932ZM4.6911 1.07999L4.68512 1.20097L4.6001 7.27097H4.23907L4.18512 7.30698L4.08508 7.27097L4.00708 7.32499V7.27097H3.9231L3.97107 1.19797V1.07096L3.98309 1.01096C4.0076 0.927732 4.06198 0.856537 4.1358 0.810951C4.20963 0.765364 4.29772 0.748649 4.38312 0.764015C4.46233 0.771574 4.53618 0.807334 4.59125 0.864784C4.64631 0.922233 4.67891 0.997537 4.68311 1.077M5.48309 7.66898C5.48708 7.64059 5.4931 7.61253 5.5011 7.585C5.52289 7.41952 5.59065 7.26349 5.69672 7.13462C5.80278 7.00575 5.94288 6.9092 6.10107 6.85599C7.15374 6.77133 8.29843 6.73331 9.5351 6.74198H9.54712C10.7845 6.73398 11.9291 6.77199 12.9811 6.85599C13.1392 6.90931 13.2793 7.00583 13.3853 7.13468C13.4914 7.26353 13.5592 7.41956 13.5811 7.585C13.5889 7.61259 13.5949 7.64063 13.5991 7.66898L9.67609 7.47599V7.47001L9.63409 7.47599L9.53412 7.47001L9.44409 7.47599L9.4021 7.47001V7.47599L5.4801 7.66898M5.29309 7.585C5.29006 7.60885 5.27982 7.63121 5.26373 7.64909C5.24765 7.66696 5.22653 7.67946 5.20312 7.68497L4.09412 7.67899C3.94545 7.70699 3.87877 7.83565 3.8941 8.06498L3.87012 9.87797V9.908C3.88212 10.0967 3.97245 10.193 4.14111 10.197C4.521 10.2057 4.89641 10.2812 5.25012 10.42C5.25702 10.4311 5.26107 10.4437 5.26196 10.4568C5.26285 10.4698 5.26052 10.4829 5.25519 10.4948C5.24986 10.5068 5.24169 10.5172 5.23138 10.5252C5.22108 10.5333 5.20898 10.5387 5.19611 10.541C5.18586 10.5414 5.17571 10.5434 5.16608 10.547C4.82061 10.4273 4.4586 10.3622 4.09308 10.354L3.21307 10.3L3.31311 10.414L3.71307 10.456C3.71993 10.5279 3.7086 10.6004 3.68011 10.6668C3.65163 10.7332 3.60695 10.7914 3.55011 10.836C3.43636 10.9043 3.30123 10.9279 3.17108 10.902L3.14709 10.896C3.0628 10.8888 2.98172 10.8602 2.91168 10.8127C2.84164 10.7653 2.78496 10.7006 2.74707 10.625C2.70725 10.5437 2.6856 10.4548 2.68353 10.3643C2.68146 10.2738 2.69905 10.184 2.73511 10.101C2.77577 10.1777 2.89644 10.218 3.09711 10.222C3.00339 10.1916 2.9207 10.1342 2.8595 10.057C2.79829 9.97977 2.76131 9.88619 2.75311 9.788L2.78308 7.96201V7.926C2.77779 7.86079 2.78882 7.79527 2.81519 7.73539C2.84155 7.67551 2.88241 7.62312 2.93408 7.58298C2.98819 7.54443 3.04993 7.51784 3.11511 7.50498H5.28412C5.29568 7.52924 5.29982 7.55637 5.29608 7.58298M8.42908 6.426C8.37235 6.37283 8.32745 6.30828 8.2973 6.23661C8.26715 6.16494 8.25243 6.08772 8.25409 6.00999C8.25409 5.93119 8.26959 5.85317 8.29974 5.78037C8.3299 5.70758 8.37409 5.64145 8.42981 5.58573C8.48552 5.53002 8.55172 5.48582 8.62451 5.45567C8.69731 5.42551 8.77533 5.41001 8.85413 5.41001C8.93258 5.40955 9.01029 5.42476 9.08276 5.45481C9.15524 5.48487 9.22102 5.52915 9.27612 5.585C9.33258 5.63965 9.37719 5.70529 9.40729 5.77787C9.43739 5.85045 9.45232 5.92843 9.45111 6.007C9.45271 6.08473 9.43792 6.16189 9.40778 6.23356C9.37763 6.30522 9.3328 6.3698 9.27612 6.42301C9.22192 6.48046 9.15645 6.52615 9.08386 6.55729C9.01127 6.58842 8.93311 6.6043 8.85413 6.60398C8.77503 6.60503 8.6966 6.58944 8.6239 6.55827C8.55121 6.52709 8.48582 6.48104 8.43207 6.42301M7.4801 5.41099C7.52471 5.41107 7.56912 5.41713 7.61212 5.42899C7.72237 5.45019 7.82334 5.50502 7.90112 5.58598C7.95763 5.64059 8.00231 5.70626 8.03241 5.77885C8.06251 5.85144 8.07738 5.9294 8.07611 6.00797C8.07777 6.08571 8.06305 6.16292 8.0329 6.2346C8.00275 6.30627 7.95785 6.37081 7.90112 6.42399C7.82198 6.50559 7.72205 6.56404 7.61212 6.59299C7.56858 6.601 7.52438 6.60504 7.4801 6.60502C7.40101 6.60607 7.32257 6.59048 7.24988 6.5593C7.17718 6.52812 7.11186 6.48202 7.05811 6.42399C7.00161 6.37068 6.95691 6.30613 6.92694 6.23447C6.89697 6.16281 6.88237 6.08563 6.88409 6.00797C6.88409 5.84884 6.94729 5.69624 7.05981 5.58372C7.17234 5.4712 7.32494 5.408 7.48407 5.408M11.1951 5.58298C11.2729 5.50203 11.3738 5.4472 11.4841 5.426C11.5271 5.41414 11.5715 5.40808 11.6161 5.408C11.6949 5.408 11.7729 5.4235 11.8457 5.45365C11.9185 5.4838 11.9846 5.528 12.0403 5.58372C12.0961 5.63943 12.1403 5.70556 12.1704 5.77836C12.2006 5.85115 12.2161 5.92918 12.2161 6.00797C12.2178 6.08571 12.203 6.16292 12.1729 6.2346C12.1427 6.30627 12.0978 6.37081 12.0411 6.42399C11.9873 6.48202 11.922 6.52812 11.8493 6.5593C11.7766 6.59048 11.6982 6.60607 11.6191 6.60502C11.5748 6.60502 11.5307 6.60098 11.4871 6.59299C11.3772 6.56404 11.2773 6.50559 11.1981 6.42399C11.1414 6.37081 11.0965 6.30627 11.0663 6.2346C11.0362 6.16292 11.0214 6.08571 11.0231 6.00797C11.0218 5.9294 11.0367 5.85144 11.0668 5.77885C11.0969 5.70626 11.1416 5.64059 11.1981 5.58598M10.8421 6.00797C10.8438 6.08571 10.829 6.16292 10.7989 6.2346C10.7687 6.30627 10.7238 6.37081 10.6671 6.42399C10.6134 6.48207 10.548 6.52818 10.4753 6.55936C10.4026 6.59055 10.3242 6.60613 10.2451 6.60502C10.1661 6.60534 10.0879 6.5894 10.0153 6.55827C9.94273 6.52713 9.87733 6.48143 9.82312 6.42399C9.76639 6.37081 9.7215 6.30627 9.69135 6.2346C9.66119 6.16292 9.64641 6.08571 9.64807 6.00797C9.64686 5.92941 9.6618 5.85143 9.69189 5.77885C9.72199 5.70627 9.76666 5.64063 9.82312 5.58598C9.87823 5.53013 9.94394 5.4859 10.0164 5.45585C10.0889 5.42579 10.1667 5.41053 10.2451 5.41099C10.4042 5.41099 10.5569 5.47419 10.6694 5.58671C10.7819 5.69923 10.8451 5.85183 10.8451 6.01096M3.58508 6.499C3.60469 6.20078 3.70873 5.9143 3.88507 5.67301C3.74594 6.20139 3.69294 6.74872 3.72809 7.29398H3.57812V6.59397C3.57809 6.56387 3.58007 6.53383 3.58411 6.504M4.38409 11.228C4.32372 11.2338 4.26725 11.2604 4.22437 11.3033C4.18148 11.3461 4.15488 11.4026 4.14911 11.463L4.13708 13.939L4.31812 14.15H2.70312L2.68512 10.89C2.80979 11.1187 3.08276 11.2293 3.50409 11.222L3.09509 11.349L3.13708 13.892L3.6731 13.904L3.66107 11.361L3.7821 11.313L3.60107 11.213L4.38409 11.231M3.37207 14.96C3.36407 14.8113 3.44443 14.735 3.6131 14.731H4.50513C4.67379 14.735 4.75409 14.8113 4.74609 14.96V15.43C4.75073 15.507 4.72484 15.5828 4.67407 15.641C4.61497 15.6851 4.54288 15.7084 4.46912 15.707H3.64911C3.57703 15.7074 3.5068 15.6842 3.4491 15.641C3.39813 15.5829 3.37222 15.5071 3.37708 15.43V14.96M2.94312 14.731C3.11178 14.735 3.19208 14.8113 3.18408 14.96V15.43C3.18893 15.5071 3.16308 15.5829 3.11212 15.641C3.05442 15.6842 2.98418 15.7074 2.91211 15.707H2.0921C2.02003 15.7074 1.94979 15.6842 1.89209 15.641C1.84113 15.5829 1.81522 15.5071 1.82007 15.43V14.96C1.81207 14.8113 1.89243 14.735 2.0611 14.731H2.95312M3.12811 16.093H3.1001C3.0281 16.077 2.99213 16.041 2.99213 15.985L5.07111 16.015V16.352L3.10712 16.093M1.19708 15.123L1.08307 14.738C0.930402 14.766 0.842115 14.816 0.818115 14.888L0.842102 15.406C0.862102 15.5826 0.992736 15.6953 1.23407 15.744L0.860107 15.69C0.80806 15.6754 0.762474 15.6436 0.730713 15.5999C0.698952 15.5562 0.682887 15.503 0.68512 15.449L0.703125 14.865C0.716432 14.816 0.741649 14.7711 0.77655 14.7343C0.811452 14.6975 0.854901 14.6699 0.903076 14.654L1.42712 14.554C1.25046 14.6307 1.17412 14.8197 1.19812 15.121M1.59009 14.721C1.62609 14.5563 1.69277 14.48 1.7901 14.492L4.78412 14.392C4.93279 14.4447 4.97711 14.6333 4.91711 14.958C4.88911 14.7087 4.77476 14.572 4.5741 14.548L1.85712 14.608C1.70445 14.62 1.61412 14.6564 1.58612 14.717M1.0741 16.253L1.0321 16.175C1.01013 16.4387 1.06089 16.7035 1.17883 16.9405C1.29678 17.1774 1.47741 17.3775 1.70111 17.519L2.38208 17.88L0.641113 17.838L0.941101 15.994C1.04112 16.0985 1.17171 16.1685 1.31409 16.194L1.0791 16.248M2.69409 17.875L2.11609 17.146L5.03809 17.164L5.05609 17.929L2.69409 17.875ZM12.7941 8.55399C12.9152 8.57327 13.0393 8.55253 13.1475 8.49497C13.2558 8.43741 13.3424 8.34613 13.3941 8.23496L13.4481 9.87998C13.3578 9.82261 13.2547 9.7883 13.1481 9.78001L9.77411 9.74998V8.47196L12.6421 8.572L12.7991 8.55997M13.0401 10.06C13.2188 10.104 13.3844 10.1897 13.5235 10.3102C13.6626 10.4307 13.7711 10.5824 13.8401 10.753L13.8461 17.935L9.56812 17.971L5.27808 17.935L5.28412 10.753C5.35307 10.5824 5.4615 10.4306 5.60059 10.3101C5.73967 10.1896 5.90541 10.1039 6.08411 10.06C7.09277 9.97931 8.20545 9.95132 9.42212 9.97599H9.6991C10.9164 9.95199 12.0291 9.97997 13.0371 10.06M9.3501 8.47501V9.75297L5.97607 9.783C5.86941 9.79133 5.76642 9.82564 5.67609 9.88297L5.7301 8.23801C5.78184 8.34918 5.86842 8.44046 5.97668 8.49802C6.08495 8.55558 6.20899 8.57626 6.33008 8.55698L6.48608 8.56901L9.35413 8.46897M4.78113 10.054L4.43207 9.99399L4.42609 8.18699C4.42273 8.17674 4.41876 8.16675 4.41412 8.15702C4.40616 8.10498 4.3811 8.05706 4.3429 8.02085C4.30469 7.98464 4.25551 7.96218 4.20312 7.95701C4.51246 7.92501 4.70309 7.97732 4.77509 8.11399L4.78113 10.054ZM4.43811 10.53L4.7381 10.572V10.885H4.43811L4.43207 10.53M0.739075 21.14V18.212H18.3811V21.14H0.729126M16.3101 7.92698V7.96299L16.3401 9.78898C16.332 9.88704 16.2951 9.98051 16.2341 10.0577C16.1731 10.1349 16.0906 10.1924 15.9971 10.223C16.1971 10.219 16.3174 10.1786 16.3581 10.102C16.3941 10.185 16.4117 10.2749 16.4097 10.3653C16.4076 10.4558 16.3859 10.5447 16.3461 10.626C16.3082 10.7017 16.2516 10.7663 16.1815 10.8138C16.1115 10.8612 16.0304 10.8899 15.9461 10.897L15.9221 10.903C15.7917 10.9291 15.6561 10.9056 15.5421 10.837C15.4853 10.7924 15.4405 10.7342 15.412 10.6678C15.3836 10.6014 15.3722 10.5289 15.3791 10.457L15.7791 10.415L15.8791 10.301L14.9991 10.355C14.6336 10.3632 14.2716 10.4283 13.9261 10.548C13.9165 10.5445 13.9064 10.5424 13.8961 10.542C13.8832 10.5397 13.8711 10.5343 13.8608 10.5263C13.8505 10.5182 13.8423 10.5078 13.837 10.4958C13.8316 10.4839 13.8294 10.4708 13.8303 10.4577C13.8312 10.4447 13.8352 10.4321 13.8421 10.421C14.1958 10.2821 14.5712 10.2066 14.9511 10.198C15.1198 10.194 15.2101 10.0976 15.2221 9.90897V9.879L15.1981 8.06602C15.2141 7.83668 15.1474 7.70797 14.9981 7.67997L13.8891 7.68601C13.8657 7.6805 13.8445 7.66793 13.8284 7.65006C13.8123 7.63219 13.8021 7.60983 13.7991 7.58598C13.7955 7.55936 13.7997 7.53228 13.8111 7.50797H15.9801C16.0453 7.52074 16.107 7.54734 16.1611 7.58598C16.2127 7.62611 16.2536 7.6785 16.28 7.73838C16.3063 7.79826 16.3174 7.86378 16.3121 7.92899M15.3841 10.092L15.8841 10.098C15.6228 10.026 15.4561 9.749 15.3841 9.267V10.092ZM16.2761 10.292L16.1131 10.322C16.1053 10.4243 16.0639 10.5211 15.9954 10.5974C15.9268 10.6738 15.8349 10.7253 15.7341 10.744C16.0874 10.804 16.2681 10.6533 16.2761 10.292ZM15.8961 7.64701H15.3111L15.3051 8.111C15.3452 7.98302 15.4231 7.87015 15.5286 7.78733C15.6341 7.70451 15.7623 7.65561 15.8961 7.64701ZM16.7811 18.607C17.0019 18.706 17.1854 18.8727 17.3051 19.083C17.0658 19.593 16.3101 19.921 15.0381 20.067L4.44507 20.043C2.9504 19.919 2.06779 19.599 1.79712 19.083C1.91663 18.8726 2.1002 18.7058 2.32111 18.607H1.1701V20.77H17.9321V18.602H16.7801M9.35712 11.302L7.81512 11.32L7.86908 17.303L9.37512 17.327L9.35712 11.302ZM6.40509 11.338C6.39086 11.3378 6.37671 11.3398 6.3631 11.344C6.19843 11.376 6.09411 11.5347 6.05011 11.82L6.03809 16.965C6.05769 17.048 6.10327 17.1225 6.16821 17.1777C6.23315 17.2329 6.31408 17.266 6.39911 17.272L7.64111 17.296L7.5871 11.325L6.40613 11.337M12.7381 11.343C12.7245 11.3388 12.7103 11.3368 12.6961 11.337L11.5151 11.325L11.4611 17.296L12.7021 17.272C12.7871 17.266 12.868 17.2329 12.933 17.1777C12.9979 17.1225 13.0435 17.048 13.0631 16.965L13.0511 11.82C13.0071 11.5347 12.9028 11.375 12.7381 11.343ZM11.2861 11.32L9.74408 11.302L9.72607 17.327L11.2321 17.303L11.2861 11.32ZM2.0611 15.037L2.05511 15.344C2.04711 15.4366 2.10544 15.491 2.2301 15.507L2.70007 15.501L2.0611 15.037ZM3.62811 15.037L3.62207 15.344C3.61407 15.4366 3.67245 15.491 3.79712 15.507L4.26709 15.501L3.62811 15.037ZM10.5161 6.31901C10.5806 6.2574 10.6235 6.1767 10.6386 6.08884C10.6537 6.00098 10.6402 5.91058 10.6001 5.83097C10.5728 5.97536 10.498 6.1065 10.3877 6.20359C10.2774 6.30068 10.1378 6.35819 9.99109 6.36698C10.0714 6.4183 10.1664 6.44147 10.2613 6.43278C10.3562 6.42409 10.4455 6.38406 10.5151 6.31901M11.8891 6.31901C11.9535 6.2574 11.9965 6.1767 12.0116 6.08884C12.0267 6.00098 12.0132 5.91058 11.9731 5.83097C11.9459 5.97544 11.8712 6.10671 11.7609 6.20383C11.6505 6.30096 11.5108 6.35836 11.3641 6.36698C11.4444 6.41814 11.5394 6.44116 11.6343 6.43247C11.7291 6.42378 11.8194 6.3839 11.8891 6.31901ZM7.12811 5.83097C7.08798 5.91058 7.07448 6.00098 7.0896 6.08884C7.10472 6.1767 7.14765 6.2574 7.2121 6.31901C7.28171 6.38406 7.371 6.42409 7.46588 6.43278C7.56076 6.44147 7.65581 6.4183 7.73608 6.36698C7.58933 6.35836 7.44971 6.30096 7.33936 6.20383C7.22901 6.10671 7.15426 5.97544 7.12708 5.83097M8.58508 6.31901C8.65478 6.3839 8.74409 6.42378 8.83893 6.43247C8.93376 6.44116 9.02874 6.41814 9.10907 6.36698C8.96232 6.35836 8.82269 6.30096 8.71234 6.20383C8.60199 6.10671 8.52731 5.97544 8.50012 5.83097C8.45998 5.91058 8.44649 6.00098 8.46161 6.08884C8.47673 6.1767 8.52064 6.2574 8.58508 6.31901ZM3.21613 10.091L3.71613 10.085V9.25999C3.64413 9.74199 3.47746 10.019 3.21613 10.091ZM2.98712 10.314L2.8241 10.284C2.8321 10.6453 3.01276 10.796 3.36609 10.736C3.26503 10.7175 3.17293 10.6661 3.10419 10.5898C3.03544 10.5134 2.99391 10.4164 2.98608 10.314M3.78607 7.63901H3.20111C3.33482 7.64768 3.46273 7.69663 3.56805 7.77946C3.67338 7.86229 3.75114 7.9751 3.79108 8.103L3.78607 7.63901ZM4.17712 1.05997C4.20112 0.945307 4.2501 0.878629 4.3241 0.859962C4.25729 0.864528 4.19415 0.892185 4.14545 0.938148C4.09675 0.984111 4.06549 1.04554 4.05707 1.11198L4.00311 7.26401H4.23212L4.27411 1.26401C4.34327 1.28059 4.41512 1.28262 4.48511 1.27C4.39512 1.26337 4.3082 1.23452 4.23212 1.18601C4.21161 1.17108 4.19564 1.15068 4.1861 1.12717C4.17655 1.10367 4.1738 1.07802 4.1781 1.05302M15.4781 15.339L15.4721 15.032L14.8341 15.496L15.3041 15.502C15.4287 15.486 15.4871 15.4316 15.4791 15.339M17.0451 15.339L17.0391 15.032L16.4001 15.496L16.8701 15.502C16.9948 15.486 17.0531 15.4316 17.0451 15.339ZM14.6111 1.27C14.6811 1.28262 14.7529 1.28059 14.8221 1.26401L14.8641 7.26401H15.0931L15.0391 1.11198C15.0307 1.04538 14.9993 0.983826 14.9504 0.937843C14.9015 0.891859 14.8381 0.864305 14.7711 0.859962C14.8458 0.877295 14.8948 0.943974 14.9181 1.05997C14.9223 1.08497 14.9194 1.11065 14.9099 1.13413C14.9004 1.15761 14.8845 1.17796 14.8641 1.19297C14.7883 1.24282 14.7014 1.27307 14.6111 1.28098V1.27Z" fill="black"/>
<path d="M4.18188 7.30704L4.23584 7.27103H4.08484L4.18481 7.30704M4.08484 7.27103H4.00684V7.32498L4.08484 7.27103ZM15.0929 7.27103H15.0149L15.0929 7.32498V7.27103ZM14.9188 7.30704L15.0189 7.27103H14.8689L14.9188 7.30704Z" fill="black"/>
</svg>
