<svg width="16" height="20" viewBox="0 0 16 20" fill="none" xmlns="http://www.w3.org/2000/svg">
<path d="M12.2245 12.2398C13.0555 12.3328 13.7845 12.4759 13.7845 12.4759C12.1265 11.5649 12.1695 8.29184 12.1695 8.29184C12.1855 7.93884 12.1855 7.60985 12.1755 7.29785H11.5045C11.5045 7.49785 11.4955 7.64085 11.4905 7.67685C11.4379 8.46179 11.2342 9.2292 10.8905 9.93686C10.7216 10.4994 10.3758 10.9925 9.90445 11.343C9.43314 11.6936 8.86141 11.8829 8.27403 11.8829C7.68666 11.8829 7.11491 11.6936 6.6436 11.343C6.17229 10.9925 5.82651 10.4994 5.65753 9.93686C5.3139 9.22918 5.11017 8.46178 5.05753 7.67685C5.05253 7.64085 5.04753 7.49685 5.04353 7.29785H4.37253C4.36253 7.61085 4.36252 7.93984 4.37852 8.29184C4.37852 8.29184 4.42153 11.5639 2.76353 12.4759C2.76353 12.4759 3.49253 12.3328 4.32353 12.2398C3.3414 12.5496 2.48355 13.1643 1.8745 13.9947C1.26544 14.8251 0.936882 15.828 0.936523 16.8578C0.936523 19.5328 3.10453 19.0579 5.78053 19.0579H10.7685C13.4435 19.0579 15.6125 19.5308 15.6125 16.8578C15.6121 15.8279 15.2834 14.8249 14.6742 13.9945C14.0649 13.164 13.2069 12.5494 12.2245 12.2398ZM9.39352 13.5099L8.27353 15.3299L7.15353 13.5099C6.16453 13.2849 5.44753 12.7739 5.34653 12.1649C5.98253 12.1489 6.52453 12.2129 6.66853 12.4509L6.23753 11.5508C6.49619 11.8331 6.81072 12.0584 7.16113 12.2126C7.51155 12.3668 7.89019 12.4464 8.27303 12.4464C8.65586 12.4464 9.03452 12.3668 9.38493 12.2126C9.73535 12.0584 10.0499 11.8331 10.3085 11.5508L9.87852 12.4509C10.0225 12.2139 10.5645 12.1509 11.2005 12.1649C11.0995 12.7739 10.3825 13.2859 9.39352 13.5099Z" fill="black"/>
<path d="M4.34308 6.09394H12.2001C12.347 6.09394 12.4879 6.03557 12.5918 5.93168C12.6957 5.82778 12.7541 5.68687 12.7541 5.53994C12.7541 5.39301 12.6957 5.2521 12.5918 5.1482C12.4879 5.04431 12.347 4.98594 12.2001 4.98594H12.0491C12.0491 4.28755 11.8555 3.60282 11.4897 3.00788C11.1239 2.41294 10.6003 1.9311 9.97708 1.61594L9.66406 3.39094C9.65211 3.45786 9.61703 3.51846 9.56494 3.56215C9.51285 3.60583 9.44704 3.62982 9.37906 3.62994C9.36242 3.63136 9.34571 3.63136 9.32907 3.62994C9.29152 3.62342 9.25564 3.60954 9.22348 3.5891C9.19132 3.56866 9.1635 3.54206 9.14166 3.51083C9.11982 3.4796 9.10436 3.44436 9.09619 3.40714C9.08802 3.36991 9.0873 3.33144 9.09406 3.29394L9.45108 1.26694C9.38304 1.15742 9.2882 1.06707 9.17551 1.00443C9.06282 0.941781 8.936 0.908913 8.80707 0.908936H7.73508C7.60615 0.908913 7.47933 0.941781 7.36664 1.00443C7.25395 1.06707 7.1591 1.15742 7.09106 1.26694L7.44907 3.29394C7.46244 3.36965 7.44519 3.44758 7.40112 3.51059C7.35706 3.5736 7.28979 3.61653 7.21408 3.62994C7.19711 3.63141 7.18002 3.63141 7.16306 3.62994C7.09507 3.62982 7.0293 3.60583 6.9772 3.56215C6.92511 3.51846 6.89001 3.45786 6.87805 3.39094L6.56506 1.61594C5.94175 1.93101 5.41808 2.41283 5.05228 3.00779C4.68647 3.60275 4.49289 4.28752 4.49307 4.98594H4.34308C4.19615 4.98594 4.05522 5.04431 3.95132 5.1482C3.84743 5.2521 3.78906 5.39301 3.78906 5.53994C3.78906 5.68687 3.84743 5.82778 3.95132 5.93168C4.05522 6.03557 4.19615 6.09394 4.34308 6.09394Z" fill="black"/>
</svg>
