<svg width="19" height="19" viewBox="0 0 19 19" fill="none" xmlns="http://www.w3.org/2000/svg">
<path fill-rule="evenodd" clip-rule="evenodd" d="M0.62012 11.5709H12.7051C13.0035 11.4475 13.2811 11.2788 13.5281 11.0709C13.8426 10.7743 14.0804 10.4057 14.221 9.99688C14.3616 9.58805 14.4007 9.15118 14.3351 8.72387L13.2151 8.88387C12.8969 8.91405 12.579 8.82312 12.3249 8.62923C12.0707 8.43534 11.8991 8.15277 11.8441 7.83788L11.7681 7.52788C11.6288 7.50678 11.497 7.45067 11.3853 7.3648C11.2735 7.27892 11.1854 7.1661 11.1291 7.03689L9.56812 3.75789C9.53156 3.6656 9.51415 3.56681 9.51696 3.46758C9.51976 3.36835 9.54273 3.27073 9.58444 3.18065C9.62616 3.09058 9.68577 3.00994 9.75963 2.94362C9.8335 2.8773 9.92008 2.82669 10.0141 2.79488L10.5571 2.59487L10.4261 2.05987C10.3978 1.90026 10.4023 1.73654 10.4395 1.57876C10.4766 1.42097 10.5457 1.27245 10.6423 1.14229C10.7389 1.01214 10.8612 0.903093 11.0014 0.821859C11.1417 0.740624 11.2971 0.688904 11.4581 0.669881L16.0481 0.0128682C16.2076 -0.0141093 16.3708 -0.00800972 16.5278 0.0307515C16.6848 0.0695126 16.8322 0.140125 16.9607 0.23821C17.0893 0.336295 17.1963 0.459736 17.2752 0.600911C17.354 0.742087 17.403 0.897987 17.4191 1.05889L17.6351 7.00689C17.6677 7.32559 17.5799 7.64496 17.3889 7.90218C17.1979 8.1594 16.9176 8.33586 16.6031 8.39687L15.4591 8.56087C15.5356 9.09251 15.5018 9.63417 15.3598 10.1522C15.2179 10.6702 14.9709 11.1535 14.6341 11.5719H18.3791C18.5586 11.5894 18.7241 11.6766 18.84 11.8148C18.9559 11.9529 19.0131 12.1311 18.9991 12.3109V17.3469C19.0131 17.5267 18.9559 17.7048 18.84 17.843C18.7241 17.9811 18.5586 18.0683 18.3791 18.0859H0.62012C0.440617 18.0683 0.275134 17.9811 0.159213 17.843C0.0432929 17.7048 -0.0138316 17.5267 0.000109837 17.3469V12.3109C-0.0138316 12.1311 0.0432929 11.9529 0.159213 11.8148C0.275134 11.6766 0.440617 11.5894 0.62012 11.5719V11.5709ZM2.33211 13.3859H8.45412C8.54014 13.3867 8.62234 13.4215 8.6827 13.4828C8.74306 13.5441 8.77664 13.6269 8.77611 13.7129V15.9419C8.77638 16.0278 8.74271 16.1104 8.68241 16.1717C8.6221 16.2329 8.54006 16.2678 8.45412 16.2689H2.33211C2.24617 16.2678 2.16413 16.2329 2.10382 16.1717C2.04352 16.1104 2.00985 16.0278 2.01012 15.9419V13.7129C2.00959 13.6269 2.04318 13.5441 2.10353 13.4828C2.16389 13.4215 2.24609 13.3867 2.33211 13.3859ZM12.5081 13.3999C12.7911 13.3961 13.0689 13.4766 13.306 13.6311C13.5432 13.7856 13.729 14.0071 13.84 14.2675C13.9509 14.5279 13.9819 14.8154 13.929 15.0934C13.8761 15.3715 13.7417 15.6275 13.5429 15.829C13.3441 16.0305 13.0899 16.1683 12.8126 16.2249C12.5353 16.2815 12.2474 16.2544 11.9855 16.147C11.7236 16.0395 11.4997 15.8567 11.342 15.6216C11.1843 15.3865 11.1001 15.1099 11.1001 14.8269C11.0977 14.451 11.2447 14.0895 11.5087 13.8219C11.7727 13.5543 12.1322 13.4025 12.5081 13.3999ZM16.0761 13.8999C16.2602 13.8973 16.4409 13.9495 16.5952 14.0499C16.7495 14.1503 16.8705 14.2943 16.9427 14.4636C17.0149 14.633 17.0352 14.82 17.0008 15.0008C16.9665 15.1817 16.8792 15.3482 16.7499 15.4793C16.6207 15.6104 16.4554 15.7001 16.275 15.737C16.0946 15.7739 15.9074 15.7563 15.737 15.6864C15.5667 15.6166 15.421 15.4977 15.3185 15.3448C15.2159 15.1919 15.1611 15.012 15.1611 14.8279C15.1595 14.5835 15.255 14.3485 15.4266 14.1745C15.5981 14.0005 15.8318 13.9017 16.0761 13.8999Z" fill="black"/>
</svg>
