<svg width="18" height="12" viewBox="0 0 18 12" fill="none" xmlns="http://www.w3.org/2000/svg">
<path d="M13.3438 7.33118C13.7095 7.45158 14.0247 7.69035 14.2396 8.00977C14.4546 8.32918 14.557 8.71104 14.5308 9.09515V11.1142H17.1588V9.09515C17.1859 8.01413 16.8104 6.96164 16.1053 6.14178C15.4002 5.32193 14.4157 4.79322 13.3428 4.6582L13.3438 7.33118Z" fill="black"/>
<path d="M12.8977 3.77612V3.85114L12.9417 3.81213H13.1677V3.84113H13.2127V4.16614H13.1677V4.19415H12.9417L12.8977 4.15613V4.50116L12.9417 4.46313H13.1677V4.49213H13.2127V4.81818H13.1677V4.84717H12.9417L12.8977 4.80817V5.15417L12.9417 5.11615H13.1677V5.14417H13.2127V5.47015H13.1677V5.49817H12.9417L12.8977 5.46014V5.80518L12.9417 5.76617H13.1677V5.79413H13.2127V6.12012H13.1677V6.14813H12.9417L12.8977 6.11017V6.45514L12.9417 6.41718H13.1677V6.44617H13.2127V6.77112H13.1677V6.79913H12.9417L12.8977 6.76013V7.10614L12.9417 7.06714H13.1677V7.09515H13.2127V7.42114H13.1677V7.45013H12.9417L12.8977 7.41113V7.75616L12.9417 7.71814H13.1677V7.74615H13.2127V8.07117H13.1677V8.10016H12.9417L12.8977 8.06116V8.12415H11.8457V3.77612H12.8977Z" fill="black"/>
<path d="M11.7146 4.62012H10.5666C10.8033 5.01972 10.924 5.47741 10.9152 5.94177C10.9063 6.40613 10.7683 6.85883 10.5166 7.24915H11.7166L11.7146 4.62012Z" fill="black"/>
<path d="M10.7883 5.89911C10.7592 6.30234 10.6131 6.68828 10.3679 7.00964C10.1226 7.331 9.78876 7.57379 9.40746 7.70813C9.02616 7.84247 8.61392 7.86256 8.22137 7.76593C7.82881 7.6693 7.47305 7.46011 7.19769 7.16412C6.92232 6.86814 6.73934 6.49823 6.67126 6.09973C6.60317 5.70123 6.65291 5.29152 6.81439 4.9209C6.97586 4.55027 7.24205 4.23485 7.58025 4.01337C7.91846 3.79188 8.31398 3.67395 8.71825 3.67407C9.28753 3.69544 9.8251 3.94168 10.2131 4.35876C10.6012 4.77585 10.808 5.32978 10.7883 5.89911Z" fill="black"/>
<path d="M6.86578 4.62012H5.71875V7.24915H6.91876C6.66705 6.85883 6.52903 6.40613 6.5202 5.94177C6.51137 5.47741 6.63208 5.01972 6.86877 4.62012H6.86578Z" fill="black"/>
<path d="M4.53571 3.77612V3.85114L4.4917 3.81213H4.26569V3.84113H4.2207V4.16614H4.26569V4.19415H4.4917L4.53571 4.15613V4.50116L4.4917 4.46313H4.26569V4.49213H4.2207V4.81818H4.26569V4.84717H4.4917L4.53571 4.80817V5.15417L4.4917 5.11615H4.26569V5.14417H4.2207V5.47015H4.26569V5.49817H4.4917L4.53571 5.46014V5.80518L4.4917 5.76617H4.26569V5.79413H4.2207V6.12012H4.26569V6.14813H4.4917L4.53571 6.11017V6.45514L4.4917 6.41718H4.26569V6.44617H4.2207V6.77112H4.26569V6.79913H4.4917L4.53571 6.76013V7.10614L4.4917 7.06714H4.26569V7.09515H4.2207V7.42114H4.26569V7.45013H4.4917L4.53571 7.41113V7.75616L4.4917 7.71814H4.26569V7.74615H4.2207V8.07117H4.26569V8.10016H4.4917L4.53571 8.06116V8.12415H5.58771V3.77612H4.53571Z" fill="black"/>
<path d="M4.08883 4.6582C3.01593 4.79322 2.03143 5.32193 1.32632 6.14178C0.621211 6.96164 0.245796 8.01413 0.272851 9.09515V11.1142H2.90383V9.09515C2.87763 8.71104 2.98009 8.32918 3.19503 8.00977C3.40997 7.69035 3.72516 7.45158 4.09084 7.33118L4.08883 4.6582Z" fill="black"/>
<path d="M9.50568 3.69519V2.55518H7.92773V3.69519C8.17746 3.58991 8.44567 3.53564 8.71667 3.53564C8.98768 3.53564 9.25595 3.58991 9.50568 3.69519Z" fill="black"/>
<path d="M11.6171 8.99158e-05H5.81708C5.78346 -0.00334827 5.74955 2.46242e-06 5.71722 0.00985554C5.6849 0.0197086 5.65483 0.0358574 5.62885 0.057463C5.60286 0.0790686 5.58144 0.105665 5.56586 0.135649C5.55027 0.165633 5.54084 0.198405 5.53809 0.232085C5.53809 0.441085 5.88308 0.619108 6.18408 0.619108C6.38408 0.619108 6.42208 0.406096 6.69208 0.406096C6.96208 0.406096 7.00008 0.619108 7.19208 0.619108C7.38408 0.619108 7.43709 0.406096 7.70709 0.406096C7.97709 0.406096 8.00709 0.619108 8.20709 0.619108C8.40709 0.619108 8.42707 0.406096 8.71307 0.406096C8.99907 0.406096 9.02312 0.619108 9.21912 0.619108C9.41512 0.619108 9.46311 0.406096 9.72711 0.406096C9.99111 0.406096 10.0351 0.619108 10.2271 0.619108C10.4191 0.619108 10.4681 0.406096 10.7371 0.406096C11.0061 0.406096 11.0441 0.619108 11.2371 0.619108C11.5871 0.619108 11.8891 0.432085 11.8891 0.232085C11.8823 0.165869 11.8502 0.104873 11.7996 0.0616744C11.7489 0.0184757 11.6836 -0.00360334 11.6171 8.99158e-05Z" fill="black"/>
<path d="M6.48962 0.579102C6.43 0.641228 6.3503 0.680189 6.26465 0.689087L7.88062 2.47614H8.20862L6.48962 0.579102Z" fill="black"/>
<path d="M11.1551 0.699097C11.0717 0.690673 10.9943 0.652267 10.9371 0.591064L9.24414 2.46808H9.5661L11.1661 0.696045L11.1551 0.699097Z" fill="black"/>
<path d="M8.71478 0.489014C8.67339 0.489152 8.63225 0.49554 8.59277 0.507996V2.47302H8.83575V0.507996C8.79664 0.495488 8.75585 0.489098 8.71478 0.489014Z" fill="black"/>
</svg>
