<svg width="18" height="19" viewBox="0 0 18 19" fill="none" xmlns="http://www.w3.org/2000/svg">
<path d="M0.40918 17.5481V19.007H17.2722V17.5481H15.8722V16.5781H15.4332V15.4411L14.9632 15.2151V13.515H14.1572V15.235L13.7212 15.4451V16.5781H13.2822V17.545H12.7342V17.162H11.5412L11.0492 11.2471H8.87518L8.38318 17.162H7.83618V15.351C7.83618 15.003 7.31818 14.7201 6.68018 14.7201H6.20918V14.6801C6.20918 14.4231 5.82818 14.2151 5.35918 14.2151H4.75919C4.29019 14.2151 3.90918 14.4231 3.90918 14.6801V15.3501H3.64719C3.46119 15.3501 3.31018 15.4331 3.31018 15.5341C3.31018 15.6351 3.46119 15.718 3.64719 15.718H3.90918V15.9321H3.64719C3.46119 15.9321 3.31018 16.0141 3.31018 16.1161C3.31018 16.2181 3.46119 16.3 3.64719 16.3H3.90918V16.5141H3.64719C3.46119 16.5141 3.31018 16.5961 3.31018 16.6981C3.31018 16.8001 3.46119 16.882 3.64719 16.882H3.90918V17.0961H3.64719C3.46119 17.0961 3.31018 17.1791 3.31018 17.2801C3.31018 17.3811 3.46119 17.4641 3.64719 17.4641H3.90918V17.545H2.60918V16.1551C2.77018 16.1471 2.89719 16.0731 2.89719 15.9831C2.89719 15.8931 2.77018 15.8201 2.60918 15.8121V14.433C2.77018 14.425 2.89719 14.352 2.89719 14.261C2.89719 14.17 2.77018 14.0981 2.60918 14.0901V12.7111C2.77018 12.7031 2.89719 12.6301 2.89719 12.5391C2.89719 12.4481 2.75518 12.3661 2.58118 12.3661H1.48618C1.31218 12.3661 1.17018 12.4431 1.17018 12.5391C1.17018 12.6351 1.31218 12.7121 1.48618 12.7121H1.51518V14.088H1.48618C1.31218 14.088 1.17018 14.165 1.17018 14.261C1.17018 14.357 1.31218 14.4341 1.48618 14.4341H1.51518V15.8101H1.48618C1.31218 15.8101 1.17018 15.8871 1.17018 15.9831C1.17018 16.0791 1.31218 16.1561 1.48618 16.1561H1.51518V17.545L0.40918 17.5481ZM7.22118 17.1651H6.20618V15.0571H6.67719C6.97719 15.0571 7.22118 15.1901 7.22118 15.3571V17.1651Z" fill="#0B0B0B"/>
<path d="M6.91016 4.09306C7.53416 4.29306 8.15715 5.54105 8.54115 6.27705C8.75415 6.68605 8.95315 7.21407 9.35815 7.26707C9.64815 7.30507 9.88515 7.07305 9.95815 6.68605C10.0108 5.486 9.90458 4.28425 9.64215 3.11206C9.55207 2.31028 9.68495 1.49919 10.0262 0.768066C9.96664 1.31665 10.0934 1.8693 10.3862 2.33707C11.1154 3.43794 11.7243 4.61405 12.2021 5.84508C12.2052 5.20857 12.4277 4.59259 12.8322 4.10106C12.7673 5.06466 12.8639 6.03234 13.1181 6.96407C13.2141 7.37397 13.2205 7.79974 13.137 8.21236C13.0535 8.62498 12.882 9.01474 12.6342 9.35506C12.3949 9.65188 12.079 9.87764 11.7206 10.0079C11.3623 10.1381 10.9752 10.1679 10.6012 10.0941C10.894 10.0763 11.1796 9.9956 11.4384 9.85738C11.6972 9.71915 11.9232 9.52668 12.1008 9.29314C12.2784 9.0596 12.4036 8.79049 12.4677 8.50417C12.5317 8.21784 12.5333 7.92105 12.4722 7.63408C12.4722 7.63408 11.8661 9.55807 10.1721 8.95607C10.4436 8.92966 10.7049 8.83935 10.9347 8.69252C11.1645 8.54569 11.3563 8.34651 11.4943 8.11131C11.6324 7.87611 11.7127 7.61158 11.7289 7.33934C11.745 7.0671 11.6965 6.79491 11.5872 6.54506C11.3506 6.12572 11.086 5.72281 10.7952 5.33907C10.7952 5.33907 11.4671 7.48207 10.1951 8.35307C10.0096 8.45989 9.80257 8.52398 9.58913 8.5407C9.37568 8.55741 9.1612 8.52632 8.96129 8.44969C8.76137 8.37306 8.58105 8.25281 8.43347 8.0977C8.28589 7.9426 8.17476 7.75653 8.10815 7.55305C7.95497 7.9463 7.90759 8.37285 7.97076 8.79012C8.03393 9.20738 8.20544 9.6008 8.46815 9.93108L8.73215 10.2991C8.29095 10.151 7.90429 9.87405 7.6221 9.50398C7.33991 9.13391 7.17517 8.68772 7.14915 8.22307C7.00615 7.21507 7.67816 4.83206 6.91016 4.09306Z" fill="#0B0B0B"/>
</svg>
