<svg width="24" height="24" viewBox="0 0 24 24" fill="none" xmlns="http://www.w3.org/2000/svg">
<path d="M12.0142 23.3989C18.3654 23.3989 23.5142 18.2502 23.5142 11.8989C23.5142 5.54765 18.3654 0.398926 12.0142 0.398926C5.66289 0.398926 0.51416 5.54765 0.51416 11.8989C0.51416 18.2502 5.66289 23.3989 12.0142 23.3989Z" fill="url(#paint0_radial_2002_2)"/>
<path d="M12.0142 22.8989C18.0893 22.8989 23.0142 17.9741 23.0142 11.8989C23.0142 5.82379 18.0893 0.898926 12.0142 0.898926C5.93903 0.898926 1.01416 5.82379 1.01416 11.8989C1.01416 17.9741 5.93903 22.8989 12.0142 22.8989Z" stroke="#0B3E58"/>
<path d="M18.5582 10.3409H13.6972V5.47893C13.6972 5.33685 13.6691 5.19617 13.6147 5.06494C13.5602 4.93371 13.4804 4.81452 13.3798 4.71419C13.2792 4.61387 13.1598 4.53438 13.0284 4.48028C12.897 4.42618 12.7562 4.39854 12.6142 4.39893H11.5362C11.2497 4.39893 10.975 4.51272 10.7725 4.71525C10.5699 4.91779 10.4562 5.1925 10.4562 5.47893V10.3409H5.59416C5.30773 10.3409 5.03302 10.4547 4.83048 10.6573C4.62795 10.8598 4.51416 11.1345 4.51416 11.4209V12.5009C4.51416 12.7874 4.62795 13.0621 4.83048 13.2646C5.03302 13.4671 5.30773 13.5809 5.59416 13.5809H10.4562V18.4419C10.4562 18.7284 10.5699 19.0031 10.7725 19.2056C10.975 19.4081 11.2497 19.5219 11.5362 19.5219H12.6142C12.9006 19.5219 13.1753 19.4081 13.3778 19.2056C13.5804 19.0031 13.6942 18.7284 13.6942 18.4419V13.5819H18.5552C18.8416 13.5819 19.1163 13.4681 19.3188 13.2656C19.5214 13.0631 19.6352 12.7884 19.6352 12.5019V11.4209C19.6352 11.135 19.5218 10.8608 19.3199 10.6583C19.118 10.4559 18.8441 10.3417 18.5582 10.3409Z" fill="white"/>
<defs>
<radialGradient id="paint0_radial_2002_2" cx="0" cy="0" r="1" gradientUnits="userSpaceOnUse" gradientTransform="translate(16.3014 6.97458) rotate(-0.707) scale(14.168)">
<stop stop-color="white"/>
<stop offset="1" stop-color="#0B3E58"/>
</radialGradient>
</defs>
</svg>
