<svg width="18" height="18" viewBox="0 0 18 18" fill="none" xmlns="http://www.w3.org/2000/svg">
<path d="M8.06505 1.91973L1.71305 14.3807C1.58212 14.6546 1.51416 14.9542 1.51416 15.2577C1.51416 15.5612 1.58212 15.8609 1.71305 16.1347C1.82308 16.3884 2.00196 16.6063 2.22941 16.7636C2.45687 16.9209 2.72383 17.0113 3.00005 17.0247H15.7001C15.9763 17.0113 16.2432 16.9209 16.4707 16.7636C16.6981 16.6063 16.877 16.3884 16.987 16.1347C17.118 15.8609 17.1859 15.5612 17.1859 15.2577C17.1859 14.9542 17.118 14.6546 16.987 14.3807L10.6301 1.91973C10.5229 1.66826 10.3442 1.45382 10.1162 1.3031C9.8882 1.15238 9.62089 1.07202 9.34755 1.07202C9.07421 1.07202 8.80691 1.15238 8.57888 1.3031C8.35085 1.45382 8.17217 1.66826 8.06505 1.91973Z" stroke="#E51025" stroke-width="1.5" stroke-linecap="round" stroke-linejoin="round"/>
<path d="M9.34814 6.44971V9.97471" stroke="#E51025" stroke-width="1.5" stroke-linecap="round" stroke-linejoin="round"/>
</svg>
