<svg width="23" height="24" viewBox="0 0 23 24" fill="none" xmlns="http://www.w3.org/2000/svg">
<path d="M22.6021 20.5049L18.2021 16.1049C18.1035 16.0066 17.9866 15.9287 17.8579 15.8757C17.7292 15.8227 17.5913 15.7956 17.4521 15.7959H16.7331C18.1701 13.9543 18.8506 11.634 18.6358 9.30795C18.4211 6.98191 17.3272 4.82539 15.5772 3.27808C13.8272 1.73077 11.553 0.909203 9.21815 0.980888C6.88333 1.05257 4.66376 2.01211 3.01201 3.66386C1.36026 5.31561 0.400717 7.53518 0.329032 9.87001C0.257348 12.2048 1.07892 14.4791 2.62623 16.2291C4.17353 17.979 6.33006 19.0729 8.65609 19.2877C10.9821 19.5025 13.3025 18.822 15.1441 17.3849V18.1039C15.1437 18.2431 15.1708 18.381 15.2239 18.5097C15.2769 18.6384 15.3548 18.7554 15.4531 18.8539L19.8531 23.2539C19.9512 23.3531 20.068 23.4318 20.1967 23.4856C20.3255 23.5393 20.4636 23.567 20.6031 23.567C20.7426 23.567 20.8807 23.5393 21.0094 23.4856C21.1382 23.4318 21.255 23.3531 21.3531 23.2539L22.6021 22.0049C22.8002 21.8056 22.9114 21.536 22.9114 21.2549C22.9114 20.9739 22.8002 20.7043 22.6021 20.5049ZM9.49608 15.7959C8.37901 15.7959 7.28703 15.4647 6.35822 14.8441C5.42941 14.2235 4.7055 13.3414 4.27801 12.3093C3.85053 11.2773 3.73868 10.1417 3.95661 9.04607C4.17454 7.95047 4.71246 6.94409 5.50234 6.1542C6.29223 5.36431 7.29861 4.82639 8.39421 4.60846C9.48982 4.39053 10.6254 4.50238 11.6575 4.92987C12.6895 5.35735 13.5716 6.08127 14.1922 7.01008C14.8128 7.93889 15.1441 9.03087 15.1441 10.1479C15.1445 10.8898 14.9987 11.6244 14.715 12.3098C14.4313 12.9952 14.0152 13.618 13.4907 14.1426C12.9662 14.6671 12.3434 15.0831 11.6579 15.3668C10.9725 15.6505 10.2379 15.7963 9.49608 15.7959Z" fill="#999999"/>
</svg>
