<svg width="16" height="9" viewBox="0 0 16 9" fill="none" xmlns="http://www.w3.org/2000/svg">
<path d="M1.02598 8.64409H14.213C14.4148 8.64355 14.6119 8.58333 14.7796 8.47101C14.9473 8.3587 15.078 8.19929 15.1553 8.01286C15.2326 7.82644 15.253 7.62131 15.214 7.42331C15.1749 7.2253 15.0782 7.04326 14.936 6.90009L8.34498 0.300093C8.15248 0.108225 7.89177 0.000488281 7.61998 0.000488281C7.34819 0.000488281 7.08748 0.108225 6.89498 0.300093L0.305981 6.90009C0.16392 7.04308 0.0672645 7.22485 0.0281476 7.42257C-0.0109693 7.6203 0.00919604 7.82518 0.086112 8.01149C0.163028 8.1978 0.293267 8.35723 0.460479 8.46978C0.627691 8.58232 0.824424 8.64297 1.02598 8.64409Z" fill="#0B3E58"/>
</svg>
