<svg width="16" height="9" viewBox="0 0 16 9" fill="none" xmlns="http://www.w3.org/2000/svg">
<path d="M1.026 7.81231e-07H14.213C14.4156 -0.000249588 14.6138 0.0596843 14.7823 0.172201C14.9508 0.284718 15.0821 0.444748 15.1596 0.631998C15.237 0.819247 15.2571 1.02528 15.2173 1.22397C15.1775 1.42265 15.0796 1.60504 14.936 1.748L8.345 8.348C8.15249 8.53987 7.89179 8.6476 7.62 8.6476C7.3482 8.6476 7.0875 8.53987 6.895 8.348L0.305995 1.748C0.162569 1.60522 0.0647145 1.42311 0.0248121 1.2247C-0.0150903 1.02629 0.00475244 0.82051 0.0818298 0.633384C0.158907 0.446257 0.289756 0.286196 0.457821 0.173451C0.625886 0.0607065 0.823617 0.000344077 1.026 7.81231e-07Z" fill="#0B3E58"/>
</svg>
